<?xml version="1.0" encoding="UTF-8"?>
<svg id="usa-map" xmlns="http://www.w3.org/2000/svg" version="1.1" viewBox="0 0 5000 3000">
  <!-- Generator: Adobe Illustrator 30.4.0, SVG Export Plug-In . SVG Version: 2.1.4 Build 226)  -->
  <defs>
    <style>
      .st0, .st1 {
        fill: none;
      }

      .st2, .st3 {
        fill: #f0a345;
      }

      .st2, .st4 {
        isolation: isolate;
        opacity: .2;
      }

      .st1 {
        stroke: #1d1d1b;
        stroke-miterlimit: 10;
        stroke-width: 2px;
      }

      .st5 {
        display: none;
        fill: #fdf4e7;
      }

      .st4 {
        fill: #fff;
      }
    </style>
  </defs>
  <rect class="st5" width="5000" height="3000"/>
  <path class="st3" d="M4288.1,1182.4h0Z"/>
  <path class="st3" d="M4288.1,1182.4h-.1.1Z"/>
  <polygon class="st3" points="4288.1 1182.4 4288.1 1182.4 4288.1 1182.4 4288.1 1182.4 4288.1 1182.4"/>
  <path class="st3" d="M4288.2,1182.4h.2-.2Z"/>
  <path id="NewJersey" class="st2" d="M4377.8,1103.4c0-3.1-17.2-6-20.3-13.3s.9-8.2,1.1-14.6,0-7.3,3.5-9.7c3.5-2.4,6,2.4,6-4.6s-.2-8.2,3.8-9.5c1.2-.4,2-1,2.5-1.6-3.1-4.2-6-6.9-7.9-7.3-11.6-2.2-42.4-12.8-56.9-17.9-.7.9-1.5,1.9-1.7,2.4-.3,1.8-.3,3.5-.3,5.3,0,4.6,0,14.3-10,18-1.4.5-2.9,1.4-3.3,2.6.2.3.4.8.7,1.2,1.1,1.9,2.8,4.8,3.7,8.8,1.4,6.4-.5,10.5-1.7,12.9-.7,1.5-1.2,2.4-1.3,5-.2,2.4-.5,4.4-.9,6.1,1.3.7,2.2,1.1,3,1.4,5.2,2.4,6.5,4.2,9.5,9.2.4.6.8,1.3,1.3,2.2,1.6,2.7,2.3,2.9,4.1,3.8,1.9.8,4.7,2.1,7.5,4.9s2,1.8,3.2,2.8c4.6,3.8,10.3,8.5,11.9,15.8,1.9,8.9-5.7,17.4-15.1,26.8-.7.7-1.5,1.5-1.7,1.8-1.8,2.2-6.4,7.9-10.5,13.2-3.9,5-9.2,11.6-19.6,13.4h.1-.2c-.2,6.5-2.2,8.4-.6,15.4,1.7,7.3,2.3,13.7,6.7,13.7s3.3,4.3,8.7,4.3,5.7,1,9.7,5-1.7,6.3,4.7,6.3,11.4-7.7,16.4,0,10.4-.7,11,7.7,8,12.7,8.4,6.7c.3-6-4.4-15.7,2-18.1,6.4-2.3,3.3-20.7,8.7-22.7,5.4-2-1.3-15.7,5.7-19.1,7-3.3,13.7-22.4,11.4-29.1-2.3-6.7-2.9-46.1-2.9-49.2h-.4Z"/>
  <path id="Vermont" class="st2" d="M4435,641.2c-2.5-2.8-7.2-7.9-5.9-15.7.4-2.5,1-4.6,1.5-6.4.7-2.8,1.3-5,1.6-8.5-.4-3-3.9-11.7-8.2-20.7-18.8,15.5-22.8,28.8-59.3,34.2-13.5,2-27.9,5-42.5,8.6h0c2.5,18.5,6.6,39.3,11.2,45.3,10.2,13.3,8.7,32.8,7.8,44.4-.1,2-.3,4.4-.3,5.3.3.9,1.7,3,2.7,4.5,2.5,3.6,5.5,8.1,6.9,13.9,1.3,5.6.5,11.2-.2,15.8,0,.5-.2,1.2-.3,1.8h.2c4.4.4,13.6,1.2,16.1,10,.9,3.1.7,6.3.6,9.4-.1,2.3-.3,6.1.5,7.2,4.6,6.5,5.3,13.8,5.9,19.7.2,1.8.4,3.6.6,5,.2,1,.6,2,1.5,3.7,2,4.1,4.8,9.8,4.8,20.7s0,1,0,1.4c10.9-3.1,23.5-6.7,32.8-9.2-.4-2.3-.7-4.9-.7-7.9,0-4.5.6-7.6,1.4-10-2.3-5.1-2-9.8-1.7-15.1.1-2.6.3-5.5.3-9.3v-8.3l-.2-.4c-.4-.8-.8-1.8-1.5-3.4-3.1-7.9-3.1-13-3.1-21.5v-4.1c0-9.2,2.2-13.1,4.4-16.3h.1c.8-6.1,1.8-11.1,3.7-18.4.4-1.6.8-2.8,1.1-4,1-3.5,1.3-4.6,1.3-9.7s0-.9,0-1c-.1-.2-.4-.6-.7-.9-1.7-2-4.4-5.5-5.2-11.8-1-8,.5-11.7,4.1-16.8.7-1,1.5-2.1,2.4-3.6,7.3-12.1,12.8-18.9,18.2-22.2,0-.8-.2-2.1-.4-3.8-.3-.4-1-1.2-1.6-1.8h.1Z"/>
  <path id="New_York" class="st2" d="M4380.4,1009.1c.4-.5.8-1.1,1.2-1.7.7-1,1.9-2.5,2.2-3.3,0,0-.2-.3-.4-.6-5.8-8.1-6.7-20.5-7.3-28.7-.1-1.8-.2-3.6-.4-4.5-.2-1.4-.8-4.6-1.5-8-2.5-13-4.5-23.4-4.5-28.7s-1.6-3.9-3-5.3l-3.2-3,.2-4.2v-66.6c-2.3-3.2-3.6-7-3.6-15.3s-1.2-8.8-2.8-11.9c-1.1-2.3-2.5-5.1-3.2-8.9-.4-2.3-.6-4.5-.9-6.6-.4-4.1-.8-7.9-2.4-10.2-4.3-6.1-4.3-13.2-4.1-18.2-4.5-.5-10.5-1.5-14.2-6.7-4-5.5-3-12.1-2.1-17.8.5-3,1-6.4.5-8.3-.5-2.1-2.1-4.5-3.9-7.1-2.6-3.8-5.5-8.1-6.1-13.7-.2-2.3,0-5.1.3-8.9.6-8.2,1.8-23.4-3.7-30.6-7.9-10.2-12.5-34.8-14.9-52.4h0c-30.2,8.1-59.8,17.4-82.5,23.2-38.6,9.8-92.5,94.3-78.2,108.6s7.7,23.8,2.2,25.1-8.5-7.5-5.5,8.9c3.1,16.4,5.1,14.7,5.1,27s-8.5,1.7-15,7.5-2.7,10.9-13.3,10.3c-10.6-.7-13.7,19.2-30.1,25s-105-5.1-131.7,21.2c0,0-2.7,13.8.6,20.7s6.5,8.6,12,11.2,14.1,8.1,9.5,10.5-25.5,49-46.9,56.5l-1.8.7,4.4,22.6,308.9-61.7h1.4c4,.4,24.2,2.5,31.6,16.5,4,7.5,9.9,18.8,12.5,23.8,3,1.8,9.3,4.9,15.7,5.6,1.9.2,6.6.7,10.1,3.9,15.1,5.4,48.1,16.8,58.4,18.7,5.6,1.1,10.6,4.5,15,8.9,0,0,.2-.2.3-.2-7.7-9.2-9.3-16.7-5.1-22.8h0l.2-.5h0Z"/>
  <path class="st2" d="M632.9,2540.3c-.4,0-.8,1.7-1.2,4.2.9-2.5,1.7-4.2,1.2-4.2Z"/>
  <path id="Alaska" class="st2" d="M1355.4,2773.2c-2.2-2.1-2.1-6.3-3.4-10.9-1.3-4.6-27.9-30.1-27.9-30.1.7-8.3-2.4-12.7-1.8-21.1s-7.7-9.9-7.7-9.9c0,0-19.6-2.1-23-3s-9.8-11.6-10.7-12.8c-.9-1.1-2.5-25.8-11.9-32.2s-50.2-57.2-50.2-57.2c0,0-12.3-7.1-15.5-8s-14.4,3.6-15.3,4.3-3.7,5.7-4.8,5.7-3.9,7.5-3.7,11.6c.2,4.1-10.3,11.4-10.3,11.4,0,0-25.1-25.1-27.6-27.4s-1.8-4.1-1.8-8.2-3-7.8-3.2-12.1-1.1-6.6-4.1-10-4.8.2-6.8,0c-2.1-.2-6.6,0-11.4,0s-5,0-7.8-1.8-6.2-5-8.9-5,1.1,1.8-5,3.4c-6.2,1.6-21-6.9-21-6.9l27.7-446.9c-.8-2.6-13.4-10.5-15.6-11.3s-17.1,1.1-12.1-6.1c5-7.2,2.2-15.4-3-14.3-5.2,1.1-22.3,15.4-28.9,15.2-6.6-.3-15.7-8.3-15.7-8.3,0,0-27.8,11.9-27.8-1.6s-12.1-5.2-12.1-8.5-1.4-27-19.6-21.2c-18.2,5.8-22.1,3.9-22.9,2.7-.8-1.2-18.5-8.4-15-11.5s.8-9.7.8-9.7c0,0-31.3.2-33.2.2s-6.8-2-7.2-6.8c-.3-4.8,6-.3,8.3-13.5s-7-6.8-9.3-6.7c-2.3.2-13.3,7-12.5,4.3s7.7-11.5,7.7-11.5c0,0-5.8,1.8-8.2-8.7-2.3-10.6-9.7.7-10.2.9s-20.3,6-24.5,7.7-10.3,11.7-12,.2-8-8.3-8-8.3l-13.2,10.5-22.2,2.5-43.8,11.7-17.8,24.8s-19.8,14.2-21.3,12.2-3-10.8-5.2-10.2c-2.2.7-6.7,15.3-13.3.5-6.7-14.8-18,0-18,0,0,0,5,19.7-1.8,19.8s-7,11.3-7,11.3c0,0,26.5,32,28.2,36.3s-3.3,13.5-5,20.3,10.2,17.7,12.8,8.7c2.7-9,11.8,5,21.3,8s8.3,22.3-4.3,11.8c-12.7-10.5-16.3,2.3-15.2,12.7,1.2,10.3,6.8,9.3,13.8,11.2,7,1.8,6.2,2.8,6.2,16.3s-2.3,8.8-5.2,12.2c-2.8,3.3-3.2.2-3.3-7.3-.2-7.5.5-15.8-.7-17.3s-2.5,3.8-3.5,5.3-4.7,4.5-8.2,5.7-1-.8-4.7-1.2c-3.7-.3-3.7-3-5.2-8.5s-8.3-7-11.8-7.7-7.3-4.8-10.2-6.8c-2.8-2-1-4.8,1.5-9.2,2.5-4.3,7-16.3,7-16.3,0,0-58.2,1-61.3,2.2-3.2,1.2-32.7,2.2-36,3.7s-5.2,6-3.7,11,33.8,30.3,30.8,28.7c-3-1.7-20-2-20-2,0,0-5.7,9.5,3.2,30.7,8.8,21.2,30.7,16.5,33.2,20.8s22.5,4.1,21.8,9.4c-.7,5.3,4.5,8.2,8.2,8.2s11.2-7.5,26.5-18,13.5-2.7,15.3.7-1.2,6.9-4.8,9.4-18.5,5.7-14.1,13.9c4.5,8.2,4.8,2.1,6.4,8.7s-.2,6.2-4.8,9.4-.2,8.6,4.6,10.5-7,10.3-8.7,13.2c-1.8,2.9-11.6,1.8-15.1,4.8s-10.2-.4-13-.4-15.8-6.2-21-5-16.2,8.2-16.6,13.5c-.4,5.3,0,45.6-.2,47.2-.2,1.6-5.3,0-5.5-7.5s-6.2-16.4-6.2-16.4c0,0-10.5-20.1-15.8-21.9-5.3-1.8-5.7,5-5.7,10.3s-4.1.5-7.1,0-.7-6.1-.7-10.3-2.1-2.3-7.8-.9c-5.7,1.4-1.1,10.9-1.1,14.2s-2.7,1.1-4.6-.2-3.7-10.7-10-8-2.3,7.7-6.1,9.1c-3.7,1.4-5.9-.2-9.6.9-3.7,1.1-10.9,9.1-13,10.7-2.1,1.6,4.8,10.1,8.2,13.2s40.3,58.4,11.8,48.4-18.2,15-7.5,10.8,29,12.5,17.2,16.5-11.1,38.3,16.9,27.1,22.1,7.6,22.1,7.6c0,0-13.5-3.1-13.5,21.6s-20.7,26.6-19.9,31.4c.8,4.8,21.3,4.8,26.6-2.5s17.9-10.6,24.1-5.3c6.2,5.3,21.3,19.9,24.1,25.8,2.8,5.9,3.9,25.8,9,25.2,2.3-.3,3.8-5.9,4.9-12-.8-3.1.5-7.3,1.7-10.4.4-2.5.8-4.2,1.2-4.2s-.3,1.8-1.2,4.2c-.5,2.8-1,6.7-1.7,10.4.8,3.1,3.8,5,11.3,3.6,21-3.9,44.3-20.7,44.3-20.7,0,0-6.5,20.2-20.5,22.7s-3.1,25.2-16,22.1c-12.9-3.1-27.2,24.1-30,24.1s-28.6,26.3-32.8,26.3-11.5-.8-17.9,2-17.9,13.4-28.3,13.4-9.5-6.4-17.7-6.2c-8.1.3-.6,7.9-5.6,10.9-5,3.1-7-1.4-10.4-3.1-3.4-1.7-26.9-5.9-26.9,13.4s8.7,14.6,19.3,1.4c10.6-13.2,6.7,2.2,4.5,7.3-2.2,5,5.6,3.1,16.5,3.6,10.9.6,9.2-1.4,15.7-3.1,6.5-1.7,16.2-7,19.1.3,2.8,7.3,4.8,12.9,7.6,7.9s1.7-15.7,6.2-10.9,25.7-3.7,29.7-3.7,6.9-1.4,10-2.8c3.1-1.4-.9-2.2-3.7-4.1-2.8-1.9-4.8-3.3-4.8-3.3,0,0,.9-8.3,3.2-8.4s9.2,2.7,10-2.6c.8-5.2,8-5,9.6-.8,1.5,4.2-2.3,5.4,0,7.4s6.1.1,6.1-2.2,0-3.2,1.7-6.1,4.3-1.4,6.4-.5c2,.9.9,2.8,2.4,4.2s3.2-1,4-2.8,3.8-3.2,4.6-3.2,3.6-4,4.8-6.1c1.3-2.2,14-8.3,18.8-10.2,4.7-1.9,5.2-2,10.2,0s3.2,4.7,6.9,4.9c3.7.1.4-5,.5-6.8s0-5.4-.5-7c-.6-1.7-6.1-.3-9.1-1-2.9-.8-.6-3.6,0-7.4.6-3.8,15.1-.6,16.7,3.7s2.2,5.5,2.8,5.5,5.6-5.8,6.1-8.4,4-5.1,6.5-5.1,2.7,8.3,5.6,8.6,2.2-7.3,1.9-9.8c-.3-2.6,4.1-7.9,5.4-8.4,1.3-.5,12-.6,14.2-.6s.6-4.6,1.2-4.3,13-.9,13-3.6,0-4.9,1.9-5.5.8-3.8,4.3-3.8,4.5-1.1,5.8-1.5.8-4.1.8-4.1l-13.7-.9-1.7-3.2s-5.1-8.3-5-11.9c0-3.6-2.2-8.1,0-8.7s6.9-4.5,7.7-10.2,3.8-5,9.1-5.1,4,.6,5.8,2.9,17.2-.9,17.2-.9c0,0,3.1,0,6.3-11.4s17.5-20.2,17.5-20.2c0,0,1.9-10.3,5.4-11.9,3.5-1.6,7.4,2.4,11.5,1.1s5-7.2,11.1-9.1c6.1-1.9,8.8-4.8,12.2-7.8,3.5-3.1,6.8-4.2,9.3-4.2s-1.7,2.5-.8,6.9c.8,4.4,7.5,1.1,9.6-3.5,2.2-4.6,6.9-4.6,11.8-3.5,4.8,1.1,3,5-.4,5.8s-11.9,9.1-15.2,9.5c-3.3.5-2.1,3.6-2.1,3.6,15.2-.1,14.9,6.1,19.9,8.9,5,2.7,5.7,9.5,6.4,13.7s-2.2,2.7-3.9,2.8-5.6-3.2-7.1-7-5.1-7.4-8.4-9-6.5,0-8.6-1.9-3.5-1.1-4.1-4.1c-.6-3.1-3.9-.4-6.3-.4s-4.8,0-5.4,3.2-.7,5.1-5.6,3.6c-4.8-1.5-11.6.4-11.6,5.3s-2.1,6.9-2.8,10.5-13.5,16.6-15.7,19-1.1,12.5,1.4,15.4,4.4-5.1,10.9-9.7c6.5-4.6,10.3,1.2,10.4,8.2s-5.2,3.8-8.5,5.8-10.6,4.4-16.9,4.4-7.6,7-6.5,9.5,12.1,1.6,14.5,1.5c2.5-.1,7.1,1.4,11.7,4.6,4.6,3.2,5.3-.4,6.3-2.7s6-6.1,6-6.1c0,0,.8-6.1.8-9.3s0-2.9,1.1-5.4,2.8-2.1,4.6-2.7c1.8-.6,4.1.2,5.4,2.4s0,1.2,0,5.1-2.4,3.6-2.4,4.5,3.2-1.2,4.6-2.8c1.4-1.6,2-3.3,5.3-3.3s5.4.4,6,1.3,5.6-4.3,7.6-7.2,6.9-9.6,9.3-2c2.5,7.6,14.1,5.3,14.1,5.3,0,0,2.5-1.5,3.8-2.8s1-2.2,3.7-3.2c2.7-.9,3.3-3.2,3.3-6s-1-3.2-1-7,7.2.8,11,.7,1.3-5.6-.3-7.8c-1.7-2.2-3.9-4.5-6.5-5.1s-8.9-4.1-7.1-10.8c1.8-6.6,20.9-16.3,18-12.3s-1.5,12.2,1.8,14.1c3.3,1.9,6.5-9.7,7.9-6.5s-2,6.4,9.9-2.2,15-6.3,14-2.1c-1.1,4.1-5.9,6-5.2,9,.7,2.9,5.4.7,8.4-2.5s13.4-2,15.8.5c2.5,2.5,1.1,6.4-2,7.2s-4.7-1.1-10.3,1.5-15,2.4-16.3,6.7c-1.3,4.4,14.1,1.3,18.2,2.5s12.8,5,13.2,6.3c.5,1.3-1.4,10.2,1.3,12.2s11.9-2.8,13.2,5.2,8.3,13,17.5,11.9,13.7-3.2,21.5-3.8,4.7,9.3,10.6,9c5.9-.4,12.2,3.1,16.2,3.1s11,5.3,12.7,5.3,13.7,3.3,17.4,3.3,5.6,8.3,7.2,10.2c1.7,1.9,9.7,7.4,12.1,8.2,2.4.7,10.4,10.4,12.9,11.2s13.5,4.1,16.6,5.7c3.1,1.5,13.6,4.1,13.6,5.8s1.3,10.5,1.3,10.5c0,0,16.2,17.4,16.9,17.7.7.4,2.6,5.1,5.9,5.2,3.3.1,6.2,4.5,13,1.5,6.9-2.9,15.5-.9,18-1.5,2-.5,12.1,1.5,15.2,2.2-1.6-.6-3-2-3-3.1s-2.9-4.1-3.4-5.1-3.2-4.7-3.7-9.6,0-3.2-.7-8-1.8-5-2.7-8c-.8-3-1.8-3.7-.2-9.7,1.7-6,4.7-3.4,6.2,0s9.4,21.8,10.7,23.9c1.3,2.2,20.4,30,25,31s8.9,20.1,11.6,22.1-1,13.4,2.5,14.7,12.6,5.4,15.4,5.4,21.9,2.9,21.5,3.3c-.4.4-1.2,7.3-1.4,11.9-.2,4.6,3.9,11.9,6.2,13.3s8.5,13.8,9.1,15.6-4.5,6.4-4.5,6.4c0,0-9.6,17.2,4.1,5.5s14.2-3.9,19.4,0c5.2,4,4.9,10.3,4.9,13.3s.2,6.2,1.9,9,.3,6.2,2.4,6.9,4.1,0,6.9,0,4.6-1.8,5-4,5-5,7.9-5.7-.2-5.2-2.4-7.2h0v-.7h.1Z"/>
  <path class="st2" d="M1217.2,2651.7c.4,0,0,0-.8-.2.2,0,.5.2.8.2Z"/>
  <path class="st2" d="M629.9,2554.9c.7-3.7,1.2-7.6,1.7-10.4-1.2,3.1-2.5,7.3-1.7,10.4Z"/>
  <path class="st2" d="M498.1,2417.7c-2.5-3.3-6.6-16.3-6.6-16.3-.4-4.7-3.5-7-12-1.6s-25.2,3.3-25,8,8,4.5,9.7,14,13.6,10.5,16.3,10.1c2.7-.4,16.5-5.6,22-6.4,5.4-.8-1.9-4.5-4.5-7.8h.1Z"/>
  <path class="st2" d="M473,2212.2c-10.4,0-1.6-16.8-12-16.8s-19.2,24.1-19.2,24.1c0,0,20.9,12.8,28.7,14.4,7.9,1.6,1.8,12,9.1,17.6,7.4,5.6,12.7,8,18.3,3.2s-8.8-14.4-9.6-27.3-4.8-15.2-15.2-15.2h0Z"/>
  <path class="st2" d="M334.5,2472.6c-17.5-4.5-28.5,1.3-25.9,6.5s13,14.3,13,14.3c0,0,30.5-16.2,13-20.7h-.1Z"/>
  <path class="st2" d="M453.5,2662.8h1.1s-1.4,17.6,7,17.9c8.3.3,11.7-.9,11.4-8.9-.3-8-10.8-13.2-19.4-8.9h-.1Z"/>
  <path class="st2" d="M434,2661.2c-6.2,3.6-10.4,2.9-15.5,2.9s-6.1-1.6-6.1,2.7-2.8,9.2-4.6,6.4c-1.8-2.8-1.6-4.4-5-5.3s-3.9-3.9-6.2,1.1c-2.3,5-3.2.9-4.1,5.3,0,0,6.9,8.7,7.4,12.8s6.4,6.9,7.3,4.1c.9-2.8,6-5.8,6.5-9.2s-2.8-6.4,0-7.6c2.8-1.2,7.8-4.6,7.8,0s2.7,8.1,5.5,9,3.5,1.6,8.7,1.6,7.6-1.2,8.1-5.7,1.1-8.3,0-12.4c-1.1-4.1-3.7-9.1-9.9-5.5h0v-.2h.1Z"/>
  <path class="st4" d="M297.6,2687.9c-4.9-2.9-45.5,20.7-45.5,20.7,0,0,6.6,12.2,21.7,1.9s28.7-19.7,23.9-22.6h-.1Z"/>
  <path class="st2" d="M340.2,2682.9c0-4.8-7.9-8.1-12.8-6.9s-6.6,13.7-6.6,13.7c0,0,2.1,4.6-2.9,9.5s-14.1-3.3-14.1,6.2,12.4,2.5,19.1,2.5,7.9.8,9.7-6.9c1.9-7.7,11.8-5.1,11.8-11.3s-4.1-2.1-4.1-6.9h-.1Z"/>
  <path class="st2" d="M370.6,2679.9c-2.1-1-4.8,7.1-6.2,6.3-.4-.2-.6-1-.8-2.7-.7-8.2-12.5,0-12.5,0-1,6,1.9,7.7,7.2,8.6,5.3.9,6.5-2.6,9.2,0s6.5-4,9.4-5.9-3.6-5.1-6.3-6.4h0Z"/>
  <path class="st2" d="M316.9,2529.8c.5,12,3.8,9.3,13.1,10.4,9.3,1.1,6.6-1.6,0-10.4s-13.1,0-13.1,0Z"/>
  <path class="st2" d="M714.1,2654.9c.5.4.9,1.4,1.3,2.6,1-1.3-2.8-3.8-1.3-2.6Z"/>
  <path class="st2" d="M774.3,2631.7c-5.5-2.9-5.9-.4-9.3-2.9-3.4-2.4,1.3-3.4,0-6.8-1.3-3.4-11.8,2.1-17.7-2.1-5.9-4.2-18.5-5.5-18.9,0s13.9-2.9,11.4,8.8,2.1,14.3-10.1.8c-12.2-13.5-25.2,11.8-25.2,11.8,0,0-1.7,2.5-2.1,7.1s.8,9.3,9.3,9.7c2.3.1,3.4-.2,3.8-.7-.3-1.2-.7-2.2-1.3-2.6-1.5-1.2,2.2,1.3,1.3,2.6,1,3.6,1.9,9.2,6.3,9.2s8.4-6.3,10.5-10.1,5,.8,10,5.1c4.9,4.2,11.9-4.2,13.6-10.5s-6.3-8-.8-8,8,7.6,11.4,9.7c3.4,2.1,5.5-5.1,8.4-9.3s5.9-4.2,5-8.8,0,0-5.5-2.9h-.1Z"/>
  <path class="st2" d="M651.8,2702.4c-3.8,7.1.8,8,7.6,8s7.2-4.2,8.4-7.1c1.3-2.9-2.5-8.8-2.5-8.8,0,0-9.7.8-13.5,8h0Z"/>
  <path class="st2" d="M779.9,2595.6c1.3-5.5-11.2.4-13.7,0s-6.2,5.1-6.2,5.1l-4.4,5.5v3.7c0,3.7,7,2.6,9.9,2.2s12.1-3.3,17.2-5.9-4-5.1-2.8-10.6h0Z"/>
  <path class="st2" d="M1201.2,2702.1c.8-1.1,1-2,.8-2.8-2.5,1.9-3.1,5.8-.8,2.8Z"/>
  <path class="st2" d="M1217.9,2683.1c-4.9-4.6-12.3-5.5-11.8-11.8s6.3-5.7,10.9-6-2.6-9.8-12.1-5.7c0,0-8.9-2-14.7,4.6-5.7,6.6-5.2,6.6-2.3,11.5s10.6,9.5,10.9,15.5c.2,4.2,2.7,6.1,3.1,8.1.6-.5,1.3-.8,2.1-.9,4-.6,6.9-8,10.3-7.8,3.4.3,8.3-2.9,3.4-7.5h.2Z"/>
  <path class="st2" d="M1225.7,2658.6s-1.9,25.4,0,34.6c1.9,9.1,10,28.3,15.2,7,5.2-21.4,9.2-11.1,9.7-19.2.5-8.2-15.5-19.7-24.8-22.3h0Z"/>
  <path class="st2" d="M1227.9,2719.5c-3.6-4.4-4.4-8.1-5.6-12.8-1.1-4.7-11.4-4.7-15.3-3.5s-5.2,9.1-9.4,10.2c-1.4.4,0,2.5,0,2.5-1.5,5.6,1.4,8.1,12.8,10.1,11.4,2.1,9.7,5.4,14.5,16.8,4.8,11.4,6.9,5.3,10,2.8s-3.1-13.6-3.1-18.6-.3-3.1-3.9-7.5h0Z"/>
  <path class="st2" d="M1302.5,2788.2c-8.9-3.6-2.7-8.3-8.9-9.9-6.3-1.7-6.3-1-7.3-9.9s-4.3-8.9-9.9-13.3-11.6-6-11.9-10.3-9.6-8.6-5-8.9c4.6-.3,5-5.8,8.6-9.8s7.6-.8,4-6.7c-3.7-6-5-8.6-12.9-7.6s-14.2,3.3-15.2,3.6-3.3,2.6-3.3,2.6l-1,1.3s-5,18.2,0,19.6c5,1.3,5.3-2.6,7.9-6.3,2.7-3.6,6.3-2,6.3,4.3s1,7,1,11.9,2-2.3,3.7,8.6c1.7,10.9-.7,4,3.3,16.6s6.3,7,8.6,10.6c2.3,3.6,6-1,8.9,6.6,3,7.6,6.3,5.3,7.9,9.3,1.7,4,4.3-2.6,8.6,6.6,4.3,9.3,8.6,11.3,9.3,10.3.7-1,7.6,1.3,4-10.9s2.3-14.6-6.6-18.2h0Z"/>
  <path class="st2" d="M1322.5,2767.3c-3.7-1.1-5.8-4-11.2,0,0,0-1.2,15.8-.6,21.3s.3,11.5,4.9,12.6,7.5,9.5,7.5,1.1,5.8-6.3,5.5-16.4-2.3-17.5-6-18.7h-.1Z"/>
  <path class="st2" d="M1506.7,2411.1s-19.7,17.4-19.5,21.6,4.2,15,9.7,10.2,3.7-17.4,9.7-17.4,12.6-12.6,0-14.4h.1Z"/>
  <path class="st2" d="M1596.3,2387.4c-2.7-4.7-27.5,0-36.5,0s-14.5,13.4-14.5,13.4c0,0-4-2.7-4,5.8s6,7.6,13.4,11,12.1,12.1,26.8,10,14.1-1.3,20.1-10.7,3.4-16.1,3.4-23.9-6-1-8.7-5.7h0Z"/>
  <path class="st2" d="M1794,2483.9c-13.1,0-13.1-17.4-17.4-22.9-4.4-5.4-16.4-14.2-19.6-5.4s-21.8,18.5-27.3,15.3c0,0,5.4,12,12,18.5,6.5,6.5,3.3,20.7,7.6,19.6,4.4-1.1,14.2-8.7,14.2-8.7,0,0,13.1,5.6,17.4,8.8s21.8,11,21.8,0,4.4-25.1-8.7-25.1h0Z"/>
  <path class="st2" d="M1905.2,2523.3c-12.2,3.7-61.7,0-61.7,0,0,0-3.1-1.8-9.8,10.4-6.7,12.2,8.6,6.1,21.4,7.5s14.1-8.1,18.9-2.6c4.9,5.5,26.9.6,34.2,0,7.3-.6,15.9-7.3,17.1-13.6s-7.9-5.3-20.2-1.6h0Z"/>
  <path class="st2" d="M1904,2555.9c-6.7,1.5-16.5,0-25.2,0,0,0,7.2,7.2,7.7,11.3s3.6,15.9,5.6,15.9,7.7-1,11.3,0c3.6,1,10.3-4.6,9.2-11.3-1-6.7-2.1-17.4-8.7-15.9h0Z"/>
  <path class="st2" d="M1976.8,2560.3s-23.3,2.1-26.9-4.5c0,0-6.2-17-15.8-9.3s-8.8,16.9-6.9,18.4,11.1,7.3,15.8,7.3,11.1-.4,11.1,5,0,15.8,1.9,17.7,4.2,4.2,10,4.2h17.3c9.2,0,13.8-.8,17.7-6.1s6.5.1,5.8-9.7-30-22.9-30-22.9h0Z"/>
  <path class="st2" d="M1937.3,2596.9c-1.1-.8-13.4,10.1-13.4,10.1-1.1,3.3,3,7.4,7.7,8.2s7.4-4.1,11.2-8.2c3.8-4.1-4.4-9.3-5.5-10.1h0Z"/>
  <path id="Hawaii" class="st2" d="M2156.5,2742.5c-2.6-.4-5.6,4.8-11.9-2.2-6.3-7.1-5.6-16.3-10-18.2-4.5-1.9-5.2-9.7-8.5-13s-14.1-16.3-15.6-16.3-25.2-21.2-25.2-21.2c0,0-14.9-5.2-14.9-10s-13.7-.7-13.7-.7c0,0-15.2-15.2-18.2-14.9-3,.4-11.4-1.5-15.9,3.5,0,0,6.3,17.4,5.8,21.6-.5,4.2-4.2,11.6-5.8,14.8-1.6,3.2,0,7.9-5.3,9.5s-9.5,4.2-13.7,10.5.4,15.3,3.4,18.4c2.9,3.2,1.4,6.3,4,11.1,2.6,4.7,10.5,6.9,10.5,14.2s0,13.7-1.1,22.1-6.9,8.4-5.3,16.9c1.6,8.4,5.8,6.3,7.9,11.6s13.2,5.3,16.3,10c3.2,4.7-.5,2.6,5.8,5.8s5.8,6.3,9,3.2,20.7-25.8,27-28.4c6.3-2.6,6.3-7.8,10.8-10.4,4.5-2.6,11.1-5.2,11.1-5.2,0,0,17.4-2.2,20.8-2.2s10.8-6.7,13.7-7.8,9.7-1.1,14.5-8.2c4.8-7.1,7.1-14.1,4.5-14.5h0Z"/>
  <path id="Utah" class="st2" d="M1594.1,1053.6l-196.2-37.4c-31,149.1-84.4,406.8-96.3,467.1l373.4,63.8,52.6-375-144.7-23.4,11.2-95.2h0Z"/>
  <path class="st2" d="M4283.9,1181.4h0Z"/>
  <path id="North_Dakota" class="st2" d="M2661.3,685.1c0-2.5-2.3-9.2-3.7-13.2-2.3-6.6-3.6-10.6-3.6-14.2,0-6.2,3.3-9.8,5.6-11.8l-3.6-2.6v-5c-.1-1.7-.8-41.4,0-53.5.4-6.6-2.9-13-5.5-18.2-.9-1.7-1.7-3.4-2.4-5-2.4-5.7-13.1-34.4-13.6-35.6l-.6-1.7v-1.8c0-.2-.1-19.6,0-37.3,0-9.4,1.6-16.4,4.8-21.2.3-.5.6-1,1-1.4-.5-2.8-1.7-6.5-4.2-9.8-4.2-5.5-6.1-14.9-6.7-24.4-99.9,0-248.8-4-434.5-20.2l-26,299.6c60.3,4.2,373.2,25.1,502.7,24.1-.2-10.1-.6-20-1.1-23.8-3.3-4.7-8.5-14.3-8.6-23.3h0v.3h0Z"/>
  <path id="Indiana" class="st2" d="M3571.7,1376.3c.4-5.2,3.1-8.9,4.6-11,0-1.2-.2-3.1-.6-4.6v-.9c-.1,0-28.6-243-28.6-243l-150.2,14h0c-1.5,1.1-2.9,2.2-4.5,3.2-6.5,4.4-12.2,7.7-17.2,10.1h0v151.9c0,7,3.2,18.9,5,26.6,1.9,8.4,2.3,10.2,2.3,12s-.1,2-.5,5.8c-2.8,29.6-2.1,37.6-1.4,39.8,2.2,5.9,2.9,13.7,3.7,21.2.5,4.8,1.1,10.7,1.9,12.8,3.8,9.9,2.4,15.3.4,22.9v.4c-.2.2-6.3,23.2-11.3,28.7-9.3,10.2-13.9,18.1-14.3,20.4-.8,6.6-1.8,15.5-2.6,22.9,2.8-1.2,5.8-1.8,9.2-1.7,4.9.2,7.6.7,10,1.8.7-1.4,1.6-3,2.7-4.4,5-6.4,9.1-7.7,16.7-8.4,7.7-.7,16.8,3.3,22.6,9.3,7-10.8,13.6-15.7,21.5-16.2,6.3-.4,11,2.6,14.2,5.9,3.4-6.7,6.5-13.7,7.8-18,1.4-4.7,4.1-7.7,7.8-9.2,5.7-2.1,10.4.8,12.9,2.4,1,.7,2,1.3,2.9,1.6,5.3,2.1,7.6,5.4,8.8,7.2,0,0,.1.2.2.3.3.2,1.1.4,2.6.8,1.4.3,2.4.5,3.2.6v-5.1c0-5.3,0-9.4,3.5-13,3.3-3.3,7.3-3.3,9.1-3.3.6-1.3,1.6-4,2.7-9.7,2-9.5,8-13.5,11.9-16.1,1.8-1.2,3.4-2.2,4.8-3.8.3-.3.5-.6.7-.8,0-.3-.2-.6-.3-.9-.4-1.3-.9-2.8-1.3-4.7-1.1-5.3.1-10.9,3.3-15.4,3.1-4.6,8-7.7,13.4-8.6,7-1.2,11.5,1.8,14.2,4.3.1,0,.3-.2.4-.3,2.5-4.8,6.8-7.5,10.5-9.9,1.1-.7,2.2-1.4,3.2-2.1-4.5-5.1-6.6-10.5-6.1-16h0l.2.2h0Z"/>
  <path id="Montana" class="st2" d="M1398,326.9c-.5,2-1.1,4-1.7,6.2-1.8,6.1-3.8,13.1-3,19.1,1.5,11-3.8,20.8-6.7,26.1,0,.2-.3.5-.4.8-.7,8.9,0,12.4.5,13.5,12,7.7,12.6,27.9,12.6,31.9s.6,20.4.9,25.9c.8,1.1,2.1,2.9,3.2,4.3,6.6,8.6,17.6,22.9,23.8,39.8,6.2,16.8,17.7,31.3,22.7,36.6,4.2-.5,11.2-.7,15.8,5.4,5.7,7.7,1.8,18.8-2.8,28.5-12.9,27.1-12.8,33.1-12.4,34.3l.5,1.1c3.9,9.5,6.4,16.8,3.4,22.9-1.4,3-4,5.2-7.1,6.1-1.3.4-2.5.6-4,.8-7.9,1.1-7.8,2.1-7.6,5.2.6,8.3,2.1,9.6,2.1,9.7,0,0,3.8,1.6,17.3-4.9,3.3-4.8,9.1-8.1,16-6.4,3.2.8,9.9,3.5,10.6,12.6,1.5,1.1,3.1,2.8,4,5.3.7,1.9,1.5,3.8.7,31.2,1.7,4,5.6,13,7.1,16.9.2.5,1.4,1.9,2.1,2.9,3.1,3.8,8.7,11,4.8,19.6-.4.9-.9,1.9-1.4,2.9-.3.7-.8,1.7-1.3,2.7,7.3,2.3,20.1,7.6,21.8,28.8.7,9.4,2.1,13.6,3,15.4.6-.3,1.3-.7,2.2-1.4l1.4-1,1.7-.5c3.9-1.1,13.8-3.1,20.1,2.7.2.2,1.1.4,2.4.5,2.4-1.7,6.6-4.2,14.3-4.2s16,2.1,23.5,3.7c2.8.6,6.6,1.4,7.7,1.6,3.1,0,6.1,1.2,9.2,2.3,1.2.4,3,1.1,4.3,1.4.8-.6,1.6-1.5,2.2-2.3,0-3.2,1.3-6.4,3.8-8.8,5.1-4.7,14.4-6.1,21.2-3.3,3,1.2,5.4,3.2,7.1,5.7,0-1.1.2-2.2.3-3.4v-1.6l.8-1.5c1.2-2.9,3-8.5,2.9-11.4l-.2-11.7,11.6,1.6c4.1.6,397,54.7,481.3,60.6l34.2-394.5c-214.5-19.5-476.3-55.1-767.7-118.9-2.4,11-7.3,33.5-8.6,39.1h-.2Z"/>
  <path id="Idaho" class="st2" d="M1627.6,786.6c-3.3,4.7-8.2,8.5-11.9,9.9-6.1,2.3-12.4,0-17.6-1.8-1.1-.4-2.7-1-3.4-1.2-2.3,0-5.3-.8-10.9-2-5.9-1.3-14.8-3.2-19.2-3.2s-2.3.2-3.4,1c-1.8,1.3-5.1,3.6-10.2,3.3-3.4-.2-9.6-.5-15-4.6-.4,0-1,0-1.4.2-9.2,5.8-16.1,4.8-20.4,2.8-11-5.1-13.6-20.2-14.6-32.7-.7-9.1-3.5-10-9.1-11.7-2-.6-4.1-1.3-6.1-2.4-6.2-3.3-9-9.8-7.3-17.4.8-3.8,2.6-7.3,4.1-10.2-.3-.5-.7-.9-1.1-1.3-1.8-2.2-3.8-4.7-5-7.9-1.9-4.8-7.7-18.4-7.8-18.5l-.9-2v-2.2c.3-8.3.5-18,.4-23.4-1.3-.9-2.2-1.9-2.9-2.9-20.9,10.1-30.4,7.3-35.8,4.3-11-6.2-11.9-19.9-12.3-25.7-.6-9.4,3-17.2,10.3-21.7,2.6-1.7,5.4-2.7,7.9-3.4-.6-1.5-1.1-2.9-1.5-3.8l-.5-1.2c-3.8-9.5-.6-21.7,12.9-50.3.9-2,1.6-3.6,2.2-5-1.6,0-3.3-.3-5-1.2-6.6-3.3-24.9-25.7-33.5-48.8-5.2-14.1-15-26.9-20.9-34.6-4.8-6.2-6.7-8.8-7.1-12.5-.4-3.8-1.1-24.5-1.1-29.9s-1.9-13.6-3.4-15.1c-10.4-5.8-10.6-20.2-9.7-32.1v-.8c0-2.9,1.2-5,2.7-7.7,1.8-3.3,5.1-9.5,4.5-14-1.4-10.2,1.6-20.1,3.7-27.4.6-1.9,1.1-3.7,1.4-5.2,1.3-5.4,6.2-27.9,8.6-38.8-13.6-3-27.2-6.1-41-9.2-18.2,66.5-62.2,230.1-64.2,247.1-1.9,16.6-.8,41.8-.2,51.3,12.2,12.1,23.8,28.3,20,43.4-.9,3.4-2.9,11.5-40.3,56.7-16.7,20.1-33.5,39.4-37.1,43.2-1,1.8-2.8,7.5-3.2,13.1.9.6,2.2,1.3,3.1,1.8,5.3,3,16.4,9.2,14.1,22.6-2,11.6-10.2,23.5-13.7,28.1l-38.3,164.4,205.8,48.7,205,39.1c6.2-31.4,25.7-134,38.6-233.1-3.7-3.2-6.6-8.3-8.2-14.1h0Z"/>
  <path id="Washington" class="st2" d="M971.8,205c13.5,21.4.7,10.1-5.8,27.1-6.6,16.9-3.2,25.9,3,38.4,6.2,12.4-8.4,22.6-16.3,37.2-7.9,14.7,1.1,24.8-7.9,33.8s-19.2,11.3-27.1,11.3-29.3,7.9-27.1-5.6,23.7-12.4,29.3-16.9,30.6-19.2,14.2-21.4c-16.4-2.3-37.9-7.9-26.6-13.5,11.3-5.6,32.7,1.1,33.8-11.3s8.1-27.1-7.2-28.2c-15.3-1.1-16.4-7.9-35.6-13.5s-31.6-1.1-40.6-15.8-29.3-20.3-29.3-20.3c0,0-31.6-1.2-6,57.8,0,0,.8,16.8-4.5,40.1-5.3,23.4,21.9,43.7,21.9,43.7,0,0-20.4,1-23.4,7.3s13.6,13.1,13.6,13.1c0,0-9.8,6-9.8,15.8s-3,19.6-3,19.6c0,0-10.6-5.3-10.6,0s29.4,2.3,36.2,17.3c5.6,12.5,17,22.9,2.2,18,16.2,18.5,29.3,39.6,33.6,50.4,3.8,9.4,7,10.5,10.8,11.8,2.2.8,4.9,1.6,7.4,3.6,4.1.9,16.5.9,24.8.9s16.6,0,23,.5c15.1,1.3,27.7,8.5,33.8,15.6,4.7.5,15,.4,20.8.4h11.9c3.4,0,8.5.2,11.8,3.5.7.2,1.6.4,2.4.6,69.8-2.8,124.6,3,158.3,8.3,35.4,5.6,64.2,13.4,77.3,20.9-.3-11.6-.2-25.5,1.1-36.6,2.5-21,54.1-211,64.6-249.3-118.1-27.5-240.6-59.6-366.4-97,0,0-2,10.9,11.6,32.3h-.2Z"/>
  <path id="Illinois" class="st2" d="M3364.4,1403.5c-.6-6-1.3-12.8-2.6-16.4-2.9-7.9-2-25.1.3-48.5.1-1.3.3-2.7.3-3.6-.3-1.5-1.1-5-1.7-7.9-3-13.2-5.5-24.7-5.5-31v-147.2h0c-21.7-2.5-15.6-40.3-17.9-49.8-2.2-9.2-8.6-17.1-12.1-27.5-36.1,2.2-148.7,7.2-191.4,9.1,4.2,5.8,10.4,12,20.2,18.7l.6.4c6.5,5.2,16.7,17.8,13.6,32.6-2.2,10.7-8.6,16.2-12.8,19.9-1.1.9-2.5,2.2-3,2.8-.3,1.3-.5,2.4-.7,3.6-.9,5.8-2.4,11.1-11.1,16.5-2.6,1.6-4.8,3-6.8,4.3-3.8,2.4-6.8,4.3-9.8,5.8s-3.4,1.2-5.9,1.7c-10.7,2.4-18.3,5.3-20,11.4.4.3,1,.6,1.5.7,7.5,2.2,16.4,7.7,16.4,21.7s0,5.5-5.1,13c-2.6,3.8-4.6,5.9-6.3,7.2-1.4,2.7-4.1,9.7-4.8,15.2-1.5,12.2-11.7,15-16,16.2-.3,0-.6.2-1,.3-.4,1.8-1.1,5.8-1.1,14v.5c0,4.1-2.4,9.2-9.2,10.9-.1,6.3.5,15,3.6,22.8,3.5,8.9,6.2,14.6,8.2,18.8,1.7,3.5,2.9,6.1,3.6,8.6,4.7,5.5,26.8,24.9,35.3,32.5,6.1,5.3,9,7.9,10.2,9.1,5.9,5.9,7.4,18.8,7.6,29.2,1.9-1.6,4.7-2.9,8.5-3.1,3.4-.2,8.1-.2,11.9,0,4.5.2,10,.5,13.5,4.1h.2c1.8,1,4.5,2.5,6.4,5.1,2.1.8,4,2.2,5.2,4.2,3.2,4.9,1.8,10.1-1.4,21.2-1.1,3.9-2.2,7.9-2.8,10.9-.9,4.5-2.8,8.8-4.8,13.3-2.7,6.2-5.5,12.6-5.1,18.1.6,1.6,4.8,7.4,17.3,15.9,10.6,7.2,19.4,10.8,21.7,11.2h.4c7.6,0,12.4,4.3,14.5,12.8.1.5.3,1.3.5,1.7.4.2,1.6.6,4.2.7l8.1.4,3.2,19.2c6.1,3.3,11.1,9.5,11.1,18.2s-2.8,12.2-4.8,16.1c-.4.7-.8,1.6-1.1,2.2,1.5,3.2,5,7,7.5,7.4.6,0,1.1.2,1.7.3,10.4-18.2,16.9-19.2,19.5-19.6,17.8-2.7,24.7,3.5,27.3,8.6.5,0,1.1.2,1.6.2,1.5.2,3.3.5,5.1,1.1h.4c-.7-1.8-1.3-3.8-1.7-6.3-.2-1.3-.5-2.5-.7-3.6-1-4.5-2.5-11.4,4.4-18.3,4.3-4.3,9.4-4.8,12.5-5.2h1.1c2.4-3.3,5.1-4.9,7.4-5.7-.5-1.2-1.1-2.8-1.6-4.7-1.9-7,1-13.6,3.4-18.8.6-1.3,1.5-3.3,1.7-4.2.1-7.7,3.8-38.1,3.8-38.4.9-7.7,7.3-18.1,18.9-30.9,1.5-2.8,5.3-13.7,7.1-20.8v-.4c1.8-6.4,1.9-6.8.3-10.8-1.8-4.6-2.4-10.8-3.1-18h0v.2h.1Z"/>
  <path id="Oregon" class="st2" d="M1252.4,573.8c-5.5-4.1-29.1-12.7-71.9-19.4-33-5.2-86.7-10.8-155.4-8h-2c-5.1-.9-9-2.2-11.8-4.1h-11.9c-24.2.2-32.1,0-36-7.1-1-1.4-8-7.9-20.5-9-5.5-.5-13.5-.5-21.2-.5h-.9c-22.3,0-31-.5-36.2-5.1-.4-.2-1-.4-1.5-.5-5.5-1.9-15.8-5.3-22.9-23.3-7.4-18.5-37.3-59.3-60-70.1-2.3,2.4-3.3,6.9-4.7,13.5-3.8,17.7-39.9,128.7-48.5,141.6s-53,113.4-86.1,139.1c0,0,8,27.8,3.2,40.7-4.8,12.8-9.6,17.1-10.2,18.7-.5,1.4-1.8,11.7-.6,18.5l308,94.1,205.6,48.7,39.3-168.8,1.5-1.8c2.4-2.9,9.3-12.6,10.8-20-1-.8-2.9-1.8-4.1-2.5-5-2.8-13.4-7.5-13.4-17.5s3.4-23,8.4-28.2c1.8-1.9,19.3-21.9,36.5-42.6,32.1-38.8,35.9-47.5,36.3-48.8,1.5-6.1-9.2-21.8-29.9-37.3h0v-.3h0Z"/>
  <path id="Michigan" class="st2" d="M3551.8,663.6c-11-3.9-14.2,7.1-14.2-9s11-16.5-1.6-16.5-19.3-3.5-29.1.4-15.7,8.3-20.1,2c-4.3-6.3-10.2-.4-10.2-13s-1.6-14.2-10.2-14.2-15.3,6.7-23.2,12.2-40.1,3.9-50.7,12.2c-10.6,8.3-15.7,26-24,25.6s-36.2-2.4-43.3-7.9-20.1-16.5-28.3-27.9-41.3,0-53.9,9c-12.6,9-2-29.9-5.5-31.5s-11.4-11.4-23.6,0c-12.2,11.4-22.8,28.7-46.4,33-17.6,3.2-30.4,12.1-40.3,22.5,6,10.1,11.6,18.6,14.4,21.1,2.5.6,9.1,1.7,14.6,2.5,27.5,4.2,53.3,8.9,67.3,18.9,3.9-.2,10.1-.5,16.6-.4,12.9,0,22.3,1.3,27.4,6,3.4-.7,8.1-1.3,12.6,1.8,2,1.4,4.6,4.1,5.5,8.8,1.1.9,3.7,2.3,5.4,3.2,6.7,3.6,16.8,9.1,17.2,20.6.2,4.9-.2,10.6-.4,15.6-.1,1.8-.2,3.8-.3,5.7,9.3,4,11.1,12.5,10.7,19.4,0,.9.9,2.3,2.4,3.9,1.8-6.4,6.8,2.9,8.4-14.7,2-21.6,6.3-7.9,11-23.2s5.5-17.7,13.4-18.5,12.6,4.7,13.8-2,3.1-9.8,6.7-7.1,2,15,5.1,15,6.3-.4,10.2-9.4,7.5-12.6,11-16.9c3.5-4.3,4.3-17.7,11-17.7s17.3,1.6,29.1-1.6c11.8-3.2,2.4-4.7,12.6-4.7s10.6-5.9,17.7-.4c7.1,5.5,15.7,2.4,22,7.9s18.1,15.7,18.5,3.2c.4-12.6-3.9-16.5,5.9-14.2,9.8,2.4,5.9,3.2,19.7,2.4s26,18.1,25.6-2,.8-16.1-10.2-20.1h-.3,0Z"/>
  <polygon class="st2" points="3323 1051.7 3323 1051.7 3323 1051.7 3323 1051.7"/>
  <path id="Wisconsin" class="st2" d="M3309.4,832.4c-10.2,16.1-16.9,25.2-18.9,7.5s1.2-16.1,7.1-18.5c5.9-2.4,2.4-9.8,9.8-14.5,1-.6,1.9-1,2.8-1.1-6.4-5.4-12.8-13.2-12.3-22.8v-.4c-1.5-.3-3.4-.7-5.4-1.9-6.2-3.9-5.8-10.7-5.1-23,.2-4.4.5-9.3.4-13.2-1.1-1.2-4.6-3.1-6.7-4.2-4.6-2.5-10.5-5.7-13.6-11.1-1.5.3-3.1.4-4.9.2-4-.4-7.4-2.4-9.5-5.6-5.2-1.2-19.3-1.4-32.4-.4l-4.4.3-3.2-3c-9.3-8.8-42.4-13.9-60.2-16.6-11.5-1.8-16.7-2.6-20-4-2.1-.9-7.3-3.2-20.3-24.4h0c-13.1,5.4-35.3-10.4-35.3-13.9s.4-13,0-20.8-16.5-.8-32.6,6.3c-9.7,4.2-29.7,12.5-45,17.1h0c-4.7,7.5-11.9,26.4-11.9,55v4.5l-3.3,3c-15,13.5-29.4,29.5-30.8,34.3-1,5.4-.9,7.8-.8,8.7,9.3,5.5,13.4,17.4,10.9,31.9-.7,4-.3,10,.1,16.4.7,10.2,1.5,21.8-1.4,33.1-1.2,4.8.4,7.4,12,12.7,1.5.7,2.9,1.3,4.2,2,.9.5,2.9,1.4,5,2.3,11.4,5,32.7,14.2,44.2,31.8,8.6,13.1,17.7,17.8,22.9,17.8,11.6,0,17.5,13.3,21,23.6,1.6,2.6,5.7,9.3,5.5,18.7-.1,7.8,0,17.2,0,17.3h-.7c0,1,.2,2,.3,2.9,12.4,7.9,11.7,16.3,11.4,19.2-.4,5.5-2.9,9.6-4.8,12.8-1.8,3-2.7,4.6-2.6,6.8,0,1.5.5,2.2,2.7,4.8,2.6,3.2,6.1,7.6,7,14.6.2,1.4.3,2.8.4,3.9,0,1,.2,2.3.3,3.1.9.4,3.4,1.1,9.2,1.3,13,.4,18.7,7.5,22.5,14.7,30.7-1.3,159.9-7.1,199.8-9.4.9-17.1,5-35.2-2.1-39.5-7.9-4.7-12.2-39.3-7.9-49.6,4.3-10.2,4.3-46,6.3-58.2s21.2-20.8,14.9-34.2,1.2-20.1,1.6-27.1c.4-7.1-.4-13-.8-18.5-.4-5.5-15.3-8.3-25.6,7.9h0l.2-.6h0Z"/>
  <path id="Minnesota" class="st2" d="M3125,516.5c-2.8-4.3-9.8-7.9-21.2-4.3-11.4,3.6-20.9,5.5-27.5-2.8s-13-9-20.9-2.8c-7.9,6.3-29.5,17.7-31.9,15.3s-16.5-4.7-21.6-11.4c-5.1-6.7-7.5-11-16.1-13.4s-9.8-3.5-15.7,4.3-5.1-10.6-13.4-14.5-13.4-15.3-18.9-15.3-34.6-3.5-44.4,0c-9.8,3.5-24.4,10.2-27.1,3.5s-10.6-12.2-24-12.2-20.4-.8-28.3-10.2-7.5-31.1-13.8-39.3c-6.3-8.3,3.9-18.1-5.5-18.1s-17.7-7.9-18.5,3.5,2,22.4-5.1,25.6c-1.6.7-44.6,3.7-122.1,4.1.4,6,1.3,10.6,2.4,12.2,9.2,11.9,8.9,25.4,8.8,26.9l-.4,8.9-4.9.4c-.4,1.5-.9,4.2-.9,8.6-.1,14.4,0,30,0,35.2,4,10.6,11,29.2,12.7,33.2.4.9,1,2.2,1.7,3.6,3.3,6.5,8.4,16.4,7.7,28.4-.5,9.2-.2,37,0,47.7,4.3,4.7,7.2,11.4,4.3,18.4-1.5,3.6-3.8,6-5.5,7.5.5,1.8,1.3,4.2,1.9,5.9,2.3,6.8,4.7,13.8,4.7,19.6s3.6,10.4,5.2,12.2c2.6,2.9,4.3,4.8,4.6,44.7v9.9h0v9.9l-5.1,2.9c-3.8,2.2-12.2,9-12.1,14.6.1,4.7,6.4,10.5,17.3,16l5.5,2.8v178.2c113.9-1.4,313.7-4.6,360.6-8.2v-8.7c0-3.6-1.6-6.4-2.6-8s-1-1.7-1.4-2.8c0-.2-.2-.5-.3-.9-2.1-6.2-3.7-9.1-4.6-10.4-7.8-.7-22.9-5.1-37.1-26.7-8.3-12.6-26-20.3-35.5-24.4-2.7-1.2-4.8-2.1-6.5-3-.7-.4-1.9-.9-3.1-1.5-4.6-2.1-11-5-16.1-10-7.1-7-9.5-15.8-7-25.7,2.1-8.2,1.4-17.7.8-26.9-.5-7.6-1-14.8.1-21.2,1.3-7.2-.4-10.7-1.4-11.3-13-7.2-10-23-8.7-29.7,2.2-11.8,22.4-31.8,33.8-42.3.6-24.3,5.7-41.4,10.2-51.9-1-4.2,2.2-7.6,11.5-11,11.8-4.3,22.4-15.7,29.5-27.5s32.3-29.5,44.4-44.5,45.2-39.3,59-39.3,23.2-9.8,23.2-15.3-18.1-4.3-20.9-8.7h0l.2.2h0Z"/>
  <polygon class="st2" points="2912.5 2322.6 2912.5 2322.6 2912.5 2322.6 2912.5 2322.6"/>
  <path id="Texas" class="st2" d="M2910.6,2189.3c-7.9-5.5-12.1-9.7-14.2-14.1-3.6-7.3-.6-13.1.9-15.9,1-2,1.1-2.2-.4-5.1-6.4-12.2-10.9-16-11.8-16.7l-6.1-2.6.7-7.2c1.7-18.4,2.8-40.6,2-48.9-4.9-3.6-7.3-9.8-7.4-15.5v-81.2h-31.7l.3-5.3c-4.8-.4-9.8-2.3-13.2-6.6-3-2.4-15.3-8.8-22.7-12.7-12.9-6.8-16.8-8.9-19-11-.6.3-1.7,1-3.2,2.5-7.1,7-14.3,7.8-19,7.2-4.9-.6-8.9-2.8-11.8-5.4-.9.3-2,.7-2.8,1.1-3.2,1.3-6.9,2.7-10.5,3.3-3.5.6-6.8.4-10,.3-4.3-.2-8-.3-11.1,1.2-.5.2-.7.4-.8.5,0,.2-.2.4-.3.7-2.5,6.3-7,9.5-13.5,9.5h-.8c-6.5,0-15.4,0-27.6-8.1-3.8-2.6-6-4.7-7.4-6.1-.9,0-2.3,0-4.7.2-10,.7-15.8-.6-20.2-5.1-.1.2-.2.4-.4.5-1.5,2.4-2.4,3.8-4.1,5.1-2.8,2.1-12.9,6.7-21.3,3.1-2.3-1-4.2-2.4-5.7-4.3-2.7.9-5.9,1.6-9.6,1.6-6.8,0-13-3.2-17.8-8.9-.9-1.1-1.6-1.7-2.1-2.1-.8.6-1.8,1.5-2.4,2.2-1.8,1.7-3.8,3.6-6.4,4.8-3.9,1.9-8.4,2-12.5.4-8.9-3.5-13.5-13.3-14.6-16.2-.6-1.6-1-2.9-1.4-3.9-.1-.5-.3-1.1-.5-1.4-.4-.3-1.5-1-4.2-2.2-4.8-2.1-10.7,1.1-13.8,2.8-.6.3-1.1.6-1.5.8-4.2,2.1-9.4,2.4-14,.8-3.8-1.3-6.9-3.8-9-7.1-2.5-.9-8.5-1.8-13.9-1.5-6.3.3-9.7-1-13.1-2.6-1.4-.7-2.5-1.2-4.7-1.7-2.8-.6-6-.8-8.7-.9-5.4-.3-11.1-.6-14.7-5.3-3.2-4.2-2.6-9.5-1.9-16.1,0-.4,0-.8.1-1.2-.6-.8-1.5-1.9-2.2-2.7-.6.3-1.2.7-1.8,1-4.5,2.6-11.9,6.9-21.9,4.1-9.2-2.6-16-9.8-21-15.1-1.2-1.3-2.6-2.8-3.2-3.3-.4-.3-1.8-1-2.7-1.4-4-1.9-13.5-6.4-12-17.7.4-3.4.5-23.5.3-40.9v-.7l6.1-110.7v-20.8c-38.3-2.4-179.6-11.6-221.6-15.3l-37.9,443.4-305.8-22.7-1.4,6.9c6.7,1.9,19.1,8.3,19.6,28.7.6,27.9,63.7,47.1,113.4,116.5,0,0,5.7,8.3,9.6,56.7,3.8,48.4,114.7,109.6,124.3,108.4s11.5-12.8,26.1-31.2,4.5-33.8,37.6-45.2c33.1-11.5,32.5-4.5,43.3,0s47.2,7.6,47.2,7.6c0,0,62.5,48.4,75.2,98.1s74.6,126.8,82.9,128.8c8.3,1.9,9.6,61.2,10.2,63.1.6,1.9,18.5,26.1,28.7,58.6,0,0,11.1,9.8,32.9,8.4,21.9-1.5,25.9,10.7,28.1,13.7,2.2,3,14.1,16.3,20,16.7s22.2-.4,29.6,0,20.4,1.9,24.4,7.8c4.1,5.9,10.7,11.9,20,10.7s13-5.6,15.2-7.4c2.2-1.9-10-13.8-12.2-22.8s-4.9-18.4-4.9-18.4c0,0-7.2-7.2-7.2-10.8s-.9-5.9,1.8-5.9,3.6-11.7,0-13.9-5.4-9-7.6-16.6-2.2-18.9,2.2-18.9,9.9-17.5,4.1-17.5-18-2.2-20.2-5.4-5.4-8.1-2.2-8.1,2.2-6.8,0-8.1,5.9-2.7,5.9-2.7c0,0,.4,2.7,3.1,2.7s8.6,4.5,9,1.4.9-11.2,4.9-8.6,2.7,10.8,5.4,10.8,4.1-9,4.1-9c0,0,5.9,3.6,3.6-6.3-2.2-9.9.9-14.4-1.8-18.9s-1.4-4.5-7.6-8.6c-6.3-4.1-9.9-12.1-6.3-12.1s25.9-2.2,26.4,1.8c.6,4.1,6,3.6,6,3.6,0,0,1.8-2.7,4.9-7.6s13.5-11.2,6.3-11.2-16.2,7.2-20.2,4.9c-4.1-2.2-1.8-7.2.9-7.2s4.9-3.1,8.6-9,11.3-6.3,13.3-6.3,4.6.4,6.1.4,11.1,2,11.1-1.7,2.1-13.8,0-17.5,3.2-10.1,5.3-7.4c2.1,2.6,6.4,1.1,6.4,3.7s5.8,3.7,5.8,3.7c0,0,3.7,3.2,6.4,1.1,2.6-2.1,3.7-1.1,2.6-8.5s-6.3-14.9-11.1-17.3c-4.9-2.4-2.1-1.6.8-5,2.9-3.4.9-5,4.5-5s3.7-12.2,6.2-9.2.3,15.5,2.8,17.6,7.9.2,6.5-5.2,3.6-5.9,5.6-3.8c2,2-.2,11.3,3.4,11.3s3.4-1.8,5.9-5.9c2.5-4.1,4.1-3.1,8.6-6.8,4.5-3.6,7,8.3,3.4,9s-7.7,3.1-3.8,3.4c3.8.2,3.8,3.4,11.9.9,8.1-2.5,6.5-9,10.1-9s9-1.8,11.3-4.3,8.3-.7,12.8-.7,10.6-6.4,16.1-8.6c5.5-2.3,20.2-13.4,22.1-22.1,1.9-8.7,7.1-15.5,11.8-14.3,4.6,1.2,6.8-10.6,8.1-10.6s8.7,1.6,9-.9-3.1-9.3-5-9.9-1.2-3.4-3.7-6.5-.6-9.9-1.9-11.2-4.6-6.8-5.3-9-4-2.8-5-5.9c-.9-3.1-2.5-5.6,2.2-5.3s7.1-1.9,8.4,5.3c1.2,7.1,12.7,4.6,15.5-3.7,2.8-8.4,14-.9,14-.9,0,0,1.9-.9,2-.1s0,21,0,21c0,0,24,5.6,32-1.1,8-6.6,8.8-5.7,10.8-4.7,1.9,1,4.3-4.3,8.8-4.3s11.5-.2,11.5-.2c0,0,4.7-9.3,0-8.5s-3.7-8-3.7-10.9,3.3-3.3,4.2-3,1.9-2.5,1.6-6.7c-.3-4.2,3.7-3.6,4.8-3.6s-.3-4.5,0-4.8,1.3-.5,2.5-.7c0-7.9-.4-13.9-1.4-16.3-6.1-15.5,1.3-35,4.4-43.3.3-.7.5-1.2.6-1.7l.4-1.1c9.9-27.3,7.4-40.3,5.1-45.7-5.8-13.1-9.3-21.4-11-25.3h0l-.5-.3h0Z"/>
  <path class="st2" d="M2931.7,2348.7c-.4,0,.4,0,0,0h0Z"/>
  <path class="st2" d="M3264,2284.9h0c.1,0,0,0,0,0Z"/>
  <path id="Louisiana" class="st2" d="M3327.5,2388.2c-1.7-7.9-5.8-9.6-15-10s-13.7-2.5-17-6-6.8-3.3-11.8-7.7-4.4-2.7-7.5-7.3-6.9-5-6.6-8.5,2.9-3.3,4.1-4.6c1.2-1.4.4-1.2,1.2-6.6.8-5.4,19.7-2.8,19.7-8.2s10.4-33.9-18.9-6.4c0,0-20.7-8-20.4-16s-5.9-4.1-9.8,3.3c-3.9,7.4-28.7,6.5-33.6,2-4.8-4.5-9.1-6.7-5.6-13.3,3.5-6.7,2.9-10,6.4-12.9s5.6-2.6,9.2-7.4c3.6-4.8,15.3-6.7,18.5-3.8s2,7.7,5,9.4,7.7,1.5,10.9,1.4c2.2-.1,5.2-1.3,7.9-.6h0c-2.7-4.6-2.9-8.3-3.1-11.5,0-.9-.1-1.8-.2-2.7-2.3-1.3-6-3.6-9.2-8.6-4.2-6.6-4.6-11.7-5-15.7-.1-1.5-.3-2.9-.6-4.3-1.7-7.7,0-11.8,1.9-15.3l.7-1.4c0-.2.1-.4.2-.8-50.3,2.3-118.4,5.8-127.3,7.2-14.2,2.2-24.6-3.9-27.7-16.3-.1-.3-.4-1-.6-1.5-1.5-3.4-4.1-9.2-3.2-16.2.6-4.8,2.6-8.6,4.1-11.4.4-.7.9-1.7,1.2-2.3-.4-2.8-.3-4.1-.2-6,0-.9.2-2.1.2-4.9,0-8.7,3.9-15.2,10.5-18.2-.5-1.9-.8-4.1-.8-6.2,0-4.9,1.9-9.4,5.8-13.6,2.5-2.7,5.3-4.7,7.6-6.3.4-.3.8-.6,1.1-.8.4-.3.6-.6,1.6-2.9.6-1.3,1.4-3,2.4-4.9,2.2-3.8,5.4-5.6,7.3-6.6.3-.1.6-.3.8-.5,0-.2.1-.6.1-1.2-2-.7-4.6-2-6.4-4.9-1.2-2-2.4-5.2-1.1-9.6,2.2-7.6,9.4-10.4,14.7-12.5.4-.2.9-.3,1.4-.5,0-.1-.2-.3-.2-.4-4.7-3-8.9-8.2-12.6-15.6-1.9-3.9-2.4-7.5-2.8-10.5-.3-2.5-.6-4.6-1.8-7.3-2.1-5-3-12-3.3-17.9l-225.2,4v25.8h0c6.9,3.3,7.3,12.6,7.6,17.9.2,5.1.1,11.9-.2,20.4-.4,8.9-1.1,17.7-1.5,23.1,3.8,3.7,8.9,10,14.6,20.9,5.9,11.2,2.9,18.7.9,22.7,1.3,1.2,3.8,3.4,8.8,6.8l2.5,1.7,1.2,2.8s3.8,9.1,12,27.8c6.3,14.4,4.8,34.7-4.6,60.6l-.3.9c-.2.5-.5,1.2-.8,2.1-1.9,5.1-7.8,20.6-4.5,28.9,3.4,8.7,3.1,30.5,2,49.6,6.2-.7,12.6-2.5,18.3-4.1,11.2-3.1,17.5,1.2,21.6,3.9s14.5,1.2,20.2,7.1c5.8,6,21.2,9.2,25.4,10.2s4.6-1,11.8-.8c7.1.2,24.9.6,29.3.8s-2.1-11.6-3.9-12.9c-1.7-1.4-1.4-3.9,1-5.8,2.3-1.9,8.7-2.7,12.3-3.3,3.7-.6,17.2-7.7,25.4,1.4s21,10.4,21,10.4c0,0,4.8,10,15,9.4s18.1,11.9,19.7,14.8c1.5,2.9,20.1,2.3,22.8,3.5s1.7,7.5,9.8,10.2-1,7.1,0,8.7c1,1.5,7.9,4.2,9.6-4.2s-1-8.7,2.7-12.7,9.1-.8,13.9-1.2c4.8-.4,17.7-3.3,19.5.6,1.7,3.9,3.5.4,4.4,7.9,1,7.5,8.3,8.3,9.6,5.4,1.4-2.9-2.9-9.6-3.7-12.3s5.2,5.4,5.2-4.6-3.3-13.5-7.7-16.2-2.9-12.1,7.7-6.6c10.6,5.6,16.6,4.8,20.4,4.4,3.9-.4,2.9-1,4.2,4.6s9.6,10,15,9.6,4.1,1.4,6.4,4.6c2.3,3.3,8.1,1.5,13.5,5.6s8.9,3.5,12.3,6.2,5.8,5.4,9.1,5.8c3.3.4-2.9,3.1-1.2,4.2,1.7,1.2,5.8,7.3,5.6,1-.2-6.4,1-8.3-.8-16.2h0Z"/>
  <path id="California" class="st2" d="M1208.8,1741.1l-4.8-2.6-.5-5.4c-.7-8.6-3.1-24.6-6.4-30.8-5-9.3-5.4-19.6-5.1-25.3l-320.9-481.4,75.4-286.6-292.7-89.4-1.1,18.9c5.8,16.9,9.5,20.6,3.1,29.6-6.3,9-11.1,36.5-54.5,83.6,0,0-13.2,26.5,24.3,82,0,0,4.2,3.2-7.9,26.5s-7.4,33.3-7.4,33.3c0,0,1.1,11.6-2.1,18s10,52.9,32.8,77.3c0,0-1.4,13.6-2.8,23.5-1.4,9.9,8.9,8.5,8.9,8.5,0,0-1.4,15.1,9.9,15.5s8.9-16.5,9.9-19.8c.9-3.3,14.1-.9,16.9.9,2.8,1.9,12.7,7.1,16,7.1s8.9-5.7,10.8,2.8,8.9,9,14.1,8.9c5.2,0,21.2-5.2,21.2,0s-4.2,11.3-11.3,10.8-10.8.9-17.9-4.7c-7.1-5.7-10.3-3.8-18.8-3.8s-21.7-.5-20.7,3.8,4.2,16.5,4.2,16.5c0,0,3.8-.5,4.7,10.8s.5,16,1.4,17.4,5.7,4.2,3.8,9.4c-1.9,5.2-9.4,1.9-10.8-1.9-1.4-3.8-3.8-7.1-6.6-8s-2.8-4.7-4.7-8-5.7,1.4-5.7-6.1.9-15.5-.5-16-6.6-2.3-6.1,4.7c.5,7.1-3.3,12.2-3.3,12.2,0,0,2.3,3.8,2.8,9.4.5,5.7,1.4,2.8,1.4,9.4s-.9,9.4-3.8,10.8c-2.8,1.4-1.9,8,.9,8s2.8.9,2.8,6.6,3.3,3.8,3.3,3.8c0,0,.9-3.3.9,5.7s5.7,9.4,7.1,9.4h15.5s1.4,1.4,1.4,6.6,5.2,5.7,5.2,5.7c0,0-1.9,18.8-3.8,18.8s-8.9,12.2-14.1,12.2-6.6,30.6,6.6,42.8c13.2,12.2,6.7,36.5,15.4,44.6s4,26.3,24.3,43.9-14.9,24.3,4.7,31.1c19.6,6.8-3.4,45.2-6.8,53.3-3.4,8.1,6.1,27.7,57.4,35.8,51.3,8.1,41.9,33.1,41.9,39.2s23,18.9,50,23,8.1,33.1,8.1,33.1c0,0,11.5,4.1,12.8,0s51.3,43.9,55.4,74.9c4,31.1,4,35.8,4,35.8,0,0,2.8,9.6,4.1,16s1.8,13.6,1.8,13.6l.6,8.4s169.1,14.3,188.5,21.1h0c10.6-5.8,17.9-14.3,20.2-19.1-7-4-11.4-12.4-11.9-23.4-.7-15,6-33.3,20.2-39.3,1-.4,4.6-2.7,8.5-13.6,2.9-8.2,4.8-17.5,6.2-24.3.8-4.1,1.4-7,2.1-9.1,2.6-7.9,11.1-11,19.2-14,3.3-1.2,9.2-3.4,11.3-5.1-1.4-2.1-5.6-5.5-9.4-7.6h0l.4.3h0Z"/>
  <polygon id="New_Mexico" class="st2" points="1691.8 1570.3 1691.8 1570.3 1612.3 2118.8 1675.4 2127.7 1681.1 2085.5 1801 2096.7 1806.3 2070.9 2109.9 2093.4 2150.1 1622.6 1691.9 1569.7 1691.8 1570.3"/>
  <path class="st2" d="M1144,1918c0-.3,0,.3,0,0h0Z"/>
  <path id="Arizona" class="st2" d="M1298.8,1507.7c1.3,6.5-1.2,11.9-3.1,15.9-1.2,2.5-2.2,4.6-2.1,6.3.4,6.3-1.7,11.1-3.3,15-1.5,3.5-2.6,6.3-2.4,10.3.8,13.8-7,23.1-14.7,27.5-3.3,6.4-8.7,9.4-16.3,8.7-8.7-.8-12.5-6.8-14.2-10.9-3.5-.9-7-2.4-10.3-4.1l-.8-.4c-1.1-.5-4-1.4-6.2-1.8-1,2.4-2.9,10.2-2.1,32,1.6,39.8-4.1,57.7-4.4,58.5v.4c-2.3,5.7-5,10.2-6.9,12.9-.2,3.6,0,9.9,2.7,14.7,4.9,9,7.2,25.1,8.2,33.5,10.6,7,19.3,18.1,14.1,30-4.1,9.2-14.7,13.2-23.2,16.3-2.4.9-5.8,2.1-7.5,3.1-.3,1.4-.7,3.4-1.1,5.2-3.3,16.8-8.9,45-26.5,52.4-3.5,1.5-6.6,7.3-7.7,14.2-1.1,7,.5,11.7,1.4,12.6,7,2.4,11.2,8.5,10.8,16.1-.7,13.8-17.2,33-39.3,41.8,4.7,13.7,66.4,43.8,66.4,43.8l223.9,127.6,158.2,26.4,79.5-548.8-373.5-63.9c0,1.5,0,3,.3,4.7h0Z"/>
  <path id="Pennsylvania" class="st2" d="M4306,1122.8c-.1,0-.6-.3-1.4-.7-4.1-1.8-8.6-4.2-13.1-11.6-.5-.9-1-1.6-1.4-2.2-.3-.5-.6-1.1-.9-1.5-1.1-.5-2.7-1.2-5-2.5-9.2-4.9-11.9-10.7-9.4-20,.4-1.4.8-2.8.9-4.6.5-6.3,2.2-10,3.2-12.2,0,0,0-.2.1-.3-.2-.8-.7-1.6-1.4-2.8-1.6-2.8-4.1-7-3.3-13.3,1-7.7,5.8-14.2,13.2-17.9v-.5c0-2.4,0-5.3.6-8.8.3-2,1-3.8,1.8-5.5-9.3-2.9-16.2-7.5-17.2-8.2l-2.1-1.4-1.1-2.2c0-.2-8.5-16.4-13.7-26-1.4-2.6-8.3-5-14.2-5.7l-325.9,65-6.8-34.7c-9.6,8.4-17.3,18.2-27.2,24.1-1.6,1-3.6,2.3-5.9,4l22.4,133.9h0c3.8,21.7,8.3,48.4,8.3,52.3s.4,3.5.8,5.7c.9,5.9,2.1,14,2.1,22.2s0,.8,0,1.1h2.4c5.4,0,36.2-3.6,43.7-6.2,4.6-4.4,12-4.8,18.2-4.5,3.4,0,6.6.5,8.5.7,47.6-10.2,261.5-56.1,268.5-56.9,2.9-.3,3.8-1.1,4.9-3.8,3.6-9,13.7-14.5,27.7-15.1,3.8-.2,4.8-1.1,8.8-6.2,4.4-5.5,9-11.3,11-13.7.7-.8,1.5-1.7,2.9-3,4.2-4.2,7.1-7.4,8.6-9.6-1.1-1.1-2.8-2.5-4-3.5-1.6-1.3-3.2-2.6-4.7-4.1h0v.2h.1Z"/>
  <path id="Ohio" class="st2" d="M3786.4,1101.8c-28.5,17.6-67.9,23.8-80.7,19.3s-16.2,9.9-16.9,2.7,5.3,1.7,1.2-8-9.4-8.2-17.6-9.4c-1.9-.3-4-.4-6.1-.6l-99.2,9.3,28.3,242.1c.2,1.1.4,2.3.6,3.6,2.7.5,6.6.3,11.4-2.2,8.7-4.5,15.2-3.2,19-1.3,9.3,4.6,11.4,15.6,12.3,20.9,0,.4.1.8.2,1.1,1,2.3,4.4,6.8,6.6,8.7.4-.2.9-.5,1.3-.7,3.6-1.9,11.9-6.3,20.3,0,2.6,1.9,4.2,3.8,5.5,5.2.3.4.8.8,1,1.1h1.9c3.4-2.1,6.9-3.2,14-2.7,4.1.3,7.6.3,11,.3s8.1,0,12,.6c1.6-.8,4.6-3.1,6.4-4.6,3.8-3,7.3-5.8,11.3-7,5.9-1.8,10.4-.3,13.1,1.2,4.4,2.5,7.6,7.1,9.8,13.9,4.3,0,11.6.7,16.9,7.9.3.4.5.7.8.9l10.9-6v.9c.7-1.7,1.4-4.2,2.2-7.8,1.8-8.6,2.6-15.9,3.3-21.8,1-8.4,1.7-14.5,4.6-19.4,4.7-7.6,13.3-7.9,18.4-8.1h1.4c-.1-.6-.3-1.2-.4-1.7-1.2-4.9-2.5-10.4-.9-15.8,2-6.8,6.7-9.6,9.5-11.2,2.2-1.3,3.6-2.1,5.2-5.7,4.4-9.4,10.8-12.3,15.3-13,3.3-.5,6.2,0,8.7.6,4.8-5.9,13.8-19.2,21.2-31.1l7.8-94.4-20.4-122.2c-22.1,17.6-52.1,42.6-71.5,54.6h0l.3-.2h0Z"/>
  <path class="st2" d="M3666.2,1105.7h.1-.1Z"/>
  <path id="Michigan-full" class="st2" d="M3702.8,945.1c-1-1.7-1.9-18.6-7-32.4s-10.6-13.5-11.4-21c-.7-7.5-.5-23-7.7-26.1s-18.9-6-25.1-.5c-6.3,5.6-13.8.7-16.2,13.8-2.4,13-5.6,15.5-9.9,18.1-4.4,2.7-5.1,13-15.5,10.9-10.4-2.2-2.4,7.7-9.7,5.8s-11.6-29.5-8.5-32.9,6.5-3.6,12.1-6.8c5.6-3.1,12.1-1.9,9.7-12.1-2.4-10.2,8-12.8,8.7-22.5s.7-2.9.5-16c-.2-13,4.6-21.8,1-29.2s-15.9-11.6-15.5-20.5,3.9-.5,4.1-11.8,2.7-17.4-12.1-21-21.8-3.6-28.8-8.5c-7-4.8-28.2-8.3-33-12.4s-16.9-9.2-27.5-7.5c-10.7,1.6-24.3,16.8-26,23.3s18,6.8,4.4,18.9c-13.6,12.2-16.7,6.1-17,20.5s3.4,9.5-.6,21.2.6,23.6-4.6,23.6-12.3-.6-11.1-12.6,5.2-22.1.6-23.9c-4.6-1.8-4.9,2.5-12.6,12.6-7.7,10.1-5.2,13.8-13.8,15s-7.4,2.5-9.2,12.3-4,28.5-8.3,28.5,9.8,21.4-2.3,31.3c-12.1,9.9-13.8,11.2-12.1,22s4.7-1.7,6.9,13.8,6.9,3.9,4.3,23.3c-2.6,19.4-3,15.5,1.7,22.8s29.4,35.1,27.2,45.9c-1.8,8.9,11.7,56.5-19.2,97.7h0l236.9-22.1c.8-1.4,1.6-3,2.5-5.2,4.8-11.8,6,1.2,5.6-13.3s-3.4-24.2,1.4-27.1c4.8-2.9,18.1-5.1,18.1-17.6s2.2-11.8,3.1-18.4c1-6.5,0-9.2,5.6-8.2s10.9-1.9,13.8,1.5c2.9,3.4,6-19.8,5.3-28.3s-8-23.2-8.9-24.9h.1Z"/>
  <path class="st2" d="M4462.7,564.8h0Z"/>
  <polygon class="st2" points="4283 1182.9 4283 1182.9 4283 1182.9 4283 1182.9"/>
  <path class="st2" d="M4271.2,1191.2c.8,3.6,1.8,8.8,2.9,14.2v-.2c.3-3.3-1-11,1-14.4,2-3.3,4,2,6-3.7.5-1.4,1.1-2.8,1.9-4.2-5.3.4-8.2,1.9-8.8,2.6-.8,2.1-1.9,4-3,5.7Z"/>
  <path id="Delaware" class="st2" d="M4331.3,1271.7c-10.4-3-9-7.3-14-11.4-5-4-9.4-5-10.4-11.7s-6.7-2.3-9.4-8.4-4-9.4-8.4-16.7c-4-6.8-13.6-13.8-14.9-17.5,2,9.8,4.1,20.2,4.6,23.3,0,.5.9,1.6,1.7,2.8,2,2.8,4.7,6.6,6,12.7.7,3.2,1.4,6.8,2,10.1.9,4.6,1.7,8.9,2.3,11.3,1,3.7,7.6,20.8,9,23.4,1.7,3.1,1.6,6.3,1.5,9,8.9-.4,17.5-1.4,21.2-1.9,1.7-1.9,6-6.5,12.6-5.4h4.7c-.3-.5-.6-.9-1-1.4-4-5.3,2.7-15.4-7.7-18.4h0l.2.2h0Z"/>
  <path id="West_Virginia" class="st2" d="M4051.1,1264.9c-3.9-.8-6.8-1.9-9-3-1.4,2.4-2.9,4.7-5.3,6.3-1.5,1.3-6.7,6.5-10.6,10.3-7.7,7.6-12.4,12.3-15.6,15.1-.4,3.1-1.4,7.3-5.1,10.2-2.9,2.3-6.8,3.2-10.8,2.5-11.5-2.1-16.7-14.9-16.7-26.8s-1.7-8-2.7-11.5c-1.3-4.5-2.2-7.6-2.5-10.2h-4.2c-3.5,3.2-10.6,5.3-29.7,7.9-11,1.5-24,2.8-26.9,2.8h-.5c-3.2,0-10.6,0-16.2-5.5-1.7-1.7-3-3.7-4-6l-1.1,13.1-1.3,2c-.3.4-6.4,10.4-13.2,20.5-4.1,6-7.5,10.8-10.3,14.2-3.4,4.3-9.2,11.4-17.2,8.8-.6-.2-1.3-.5-2.1-.8-.5-.2-1.2-.5-1.8-.7-.2.3-.5.8-.9,1.6-4.3,9.1-9.8,12.4-13,14.3-.2,0-.3.2-.5.3.2,1.3.7,3.5,1,4.9,1.5,6.2,4.3,17.8-5.9,23.4-4.8,2.6-9.9,2.8-13.9,3h-2.6c-.5,2.3-1,6.3-1.3,9.6-.7,6.2-1.6,14-3.6,23.6-1.4,6.6-5.5,26.3-21,26.3s-.5.2-.8.2v18.8l43.5,49.4,4.8,3.9,30.3,18.3c2.1-.6,5.6-2.2,9.4-6.6,5.4-6.1,11.2-8.8,17.3-8.3,3.9.3,6.9,1.9,9.1,3.5.4-.3.9-.7,1.3-.9,4.6-3.4,10.4-7.6,17.2-9.4,1.9-.5,3-1.6,5.1-3.8,2.9-3,7.2-7.5,14.7-8.3,3.8-.4,6.4-1.3,9.4-2.3.7-.2,1.3-.4,2-.7.4-2.6.9-6.5,1.1-9.4,1.1-10.4,2.1-20.2,6.8-26,5.4-6.5,15.9-27.3,16.3-33.3-1-3.7-1.3-10.4,3.1-26.5,1.4-5.2,5-17.8,7.9-21.3,6.6-7.9,17.1-2.6,30.3,4.1l.9.4c.4,0,1.1,0,1.6-.2.4-5.9,3.2-11.2,5.7-15.8,1.2-2.3,3.2-6.1,3.2-7.4,0-14.1,17.6-27.6,23-31.4.5-.3,1-.7,1.6-1.1,4.7-3.2,13.4-9.3,13.4-13.9,0-6.9,1.4-12.1,2.6-16.2.9-3.1,1.5-5.5,1.5-8.2v-5.3c-3.5,1.6-8,2.1-13.9.8h0v.6h0Z"/>
  <path class="st2" d="M4109.3,1258.1c-.3-.4-.8-1-1.6-1.9-5.2-5.4-11.7-8-18.1-9.9-9.9-3-10.5-1.5-11-.2h0c4.6,1.5,8.6,5.9,11.4,9,6.1,6.8,13.9,10.7,18.4,12.7.5-1.8,1.2-3.9,1.4-5.1-.4-1.9-.4-3.5-.4-4.6h0Z"/>
  <path id="Kentucky" class="st2" d="M3761.9,1422.4c-2.4-1.5-5-3.8-7.6-7.3h-2.2c-3.6,0-14.4,0-17.4-12.1-.2-.9-.4-1.7-.6-2.3-.9.7-1.8,1.4-2.6,2-6,4.8-12.8,10.2-21,8.8-2.7-.5-6-.5-10.1-.5s-7.5,0-12.2-.4h-2.4c-2.8,1.7-5.8,2.8-11.1,2.8-9.9,0-14.1-4.7-16.9-7.7-.4-.4-.7-.8-1.1-1.2-.2,0-.4.2-.5.3-2.8,1.5-6.5,3.4-11.4,3.4-12.9,0-23.8-18.2-25.2-23.7-.2-.9-.4-1.8-.6-2.9-.2-1.2-.8-4.2-1.5-5.9-.3,0-.6.3-1,.5-8.3,4.3-16,5.2-22.4,4.4,2,2.1,5.1,6.3,5.2,11.8.1,4.6-1.8,9-5.4,12.4-3.1,2.9-6.3,5-8.9,6.6-1.3.8-3.1,1.9-3.6,2.5-3.2,6-9.8,9.8-14.6,11.2-5.6,1.7-9.5.5-11.8-.8-.8-.5-1.5-1-2.1-1.6,1.4,4.3,4.1,12.1-4.7,21.6-3.1,3.4-6.3,5.4-8.6,6.9-2,1.3-3.1,2.5-3.3,3.4-1.6,7.6-4.4,21.1-14.9,24.7v.8c0,5.4-.7,13.2-6.7,18.1-6.8,5.5-15.9,3.5-20.7,2.5-8.2-1.8-11.9-4.8-14.8-8.9-2.3,5.6-5.1,11.3-7.5,15.8-5.4,10.1-12.3,11.9-15.9,12-5.1.2-9.8-2.3-12.8-7-.6-.9-1.1-1.6-1.5-2-1.2,1-3.7,3.6-7.5,10.3-2.5,4.4-7.3,12.6-15.7,12.1-7.5-.4-10.4-7-11.7-10.2-.3-.7-.6-1.5-.9-1.9-1-1.7-5.3-4.1-7.1-4-1.1,0-1.8.2-2.2.2-.1.2-.3.3-.5.6-.2.3-.8,1.4-1.1,2.1-1.1,2.2-2.5,5-4.8,7.3-4.1,4.2-9.8,5.5-15.2,3.4-2.4-.9-3.9-1.7-4.9-2.3-.1,0-.2,0-.4-.2-.3,0-1.1-.2-2.8-.2s-1.7.8-1.9,1.1c-.6,3-2.3,5.7-4.9,7.4-2.3,1.6-5.2,2.4-8,2.6-.3.8-.5,1.4-.5,1.9.3,1,.6,1.8,1,2.8,1.6,3.8,3.9,9.7-.9,18.1-3.3,5.7-7.5,7.3-10.4,7.8-4.2,5.2-9.9,6.1-13.2,6.5.3,1.2.6,2.6.8,4.2.3,2,.8,2.8,1.8,4.2,1,1.5,2.4,3.5,3.1,6.3,1.1,4.3,0,9-3,13-3.7,4.8-9.5,7.7-15.6,7.7s-7.7-.8-10.8-2.9h0c-.3,0-1.4-.2-2-.4-3.9-.6-11.7-1.8-15.6-9.1-1.1-.2-3.1-.2-5.6,0-1.3,1.4-3.4,4.3-5.4,7.7,5,3.7,6.2,10.2,5.5,16.1-.9,6.5-2.6,9.9-4.2,12.6-.5,5.1-3.9,11.9-6,15.6-.2.3-.3.5-.5.8,27.5-1.7,58.3-3.7,75.8-5v-20.9h19.8l338.9-28,104.5-95.9-47.7-54.1v-25.7h0l.2.2h0Z"/>
  <path id="Tennessee" class="st2" d="M3713.6,1617.5l-3.4.3-340.6,28.1c2.9,3.1,4.1,6.3,3.6,9.8-.5,4.5-3.6,8.1-8.2,9.4-1.4.4-5.4,1.6-113.5,8.1-1.2,1.8-2.2,3.4-2.8,4.5-.6,1.6-1.6,4.2-3.4,8.8,0,.2-.2.5-.3.8,2.5,1.6,4.8,3.9,6,7.2,1.3,3.7.9,7.6-1.3,11.2-2.1,3.5-5,7.7-7.7,10.9-1.7,2.1-3.4,3.9-5,5.3,0,.4.2.9.4,1.5,4.8,11.9-5.9,20.7-9.9,24-.4.3-.9.7-1.1,1-1,1.2-2.1,2.8-2.1,10.2s-2,14.4-11.1,16.5c-.5,1.3-1,2.3-1.4,3.1-1.2,2.5-1.3,2.7-1.3,7.3h0c2.1,1.9,7.9,6.9,4.9,16.9-.1.3-.2.7-.3,1l138.9-6.6c1.7-3,4.5-5.1,8-6,4.5-1.1,117-8.6,210.8-14.7l92.7-13.3v-1.4c0-6.8,3.8-18.5,7.5-22.9,3.1-3.7,9.9-6.2,14.4-7.5.5-1.5,1.1-4,1.1-7,0-12.2,9.2-15.7,12.7-17.1.2,0,.4-.2.6-.2,5.4-6.8,17.1-10.5,22.1-10.9,1.8-.3,7.1-2.2,11.8-3.8,20.6-19,24.9-20.5,26.5-21,1.7-.6,3.4-.9,5.1-1.2.6,0,1.4-.2,2.1-.4,1.3-4.8,2.9-7.9,5-11.7l.8-1.4c2.1-3.9,9.7-16.8,20.9-18.2,4.5-.6,8,.8,10.7,2.8,1.9-7.6,6.9-10.9,10.9-12.4,4.2-1.5,8.5-1.5,13.2-1.4h5.5c.5-1.1,1.3-2.9,2.4-6.1,4.1-11.4,11.6-15.4,16.2-17.4.2-2.6.4-5.7.7-8.7l-141.7,22.4-.3.3h0Z"/>
  <path class="st2" d="M4401.4,1019.6h0Z"/>
  <path id="Connecticut" class="st2" d="M4389.7,931.9v1.7c0,3.8,2.8,18,4.1,24.8.8,3.9,1.4,7,1.6,8.8.3,1.7.4,3.8.6,6.2.3,4.8,1,15,3.5,18.4,7.7,10.7,3.1,20.1-.3,25.2.6.8,1.2,1.6,2,2.5h0c18.8-13.8,46.6-32.8,53.5-34.9l52.8-18.1-15.8-57.2-102.1,22.5h0Z"/>
  <path class="st2" d="M4336.3,1311.4c-1.6,1.6-3.9,3.6-7.3,4.5-4.3,1.1-18.1,2.4-29.1,2.9h-1.1c-5.2,0-9.5-1.6-12.6-4.7-5.2-5.2-4.9-12.1-4.8-15.8v-.7c-2.8-6.1-8.8-21.8-9.9-26.1-.8-3-1.6-7.4-2.6-12.6-.6-3.3-1.3-6.7-1.9-9.8-.4-1.9-1.2-3.2-2.7-5.3-1.8-2.6-4.3-6.1-5.1-11.2,0-.4-.2-1-.3-1.8-2.5,1.4-5.5,1.7-8.2,1.7-5.5,0-7.1,3.8-6.2,10.6s4.6,4.2,6.4,15.7-4.4,9.5,1.5,12.4c6,2.9,6,17.9,8.4,21.6s-2.2,4,3.8,7.5,1.3,15.2-3.1,15.2-7.1,7.7-2.6,9.3,8.4,3.1,13.5,1.8c5.1-1.3,6.6-13,9.9-4.9,3.3,8.2,8.2,9.1,9.3,17.7s4.8.2,5.8,9.6-7.4,9.4,1,9.4,7,5.7,9.4-3c2.3-8.7,7.4-4.3,7.4-4.3,0,0,1.3,1.3-2.7,9.4s-2,9.7-4.7,13,1,3.7-2.3,10-1,2.7-3.3,12-2.7,4.3-2,12-.3-3.3-2.7,11.4-2.3,7.3.3,9.4,2.3,9.7,5,.7,7.7-8.4,10.4-18.1c2.7-9.7-1-5,3.3-16.7,4.4-11.7,1.7-12.4,5-19.7s2,.3,4-11.4c2-11.7,3.3-12,6.7-12.4,3.3-.3-5-20.4,0-24.4s5,1.3,7.4-7c1.5-5.3-1.2-6-2-7.7h-1l-.3-.2h0Z"/>
  <path id="Missouri" class="st2" d="M3252.3,1618.6c-12.8-2-21.2-14.3-23.8-22-2.3-6.9.7-12.6,2.9-16.7,1.3-2.5,2.5-4.7,2.5-6.7v-.2c-.4-.4-1.7-.9-1.8-.9l-6.9-1.3-2.8-16.7c-10-2.9-13.1-10-14.4-14.4-10.4-2.1-24.5-11.2-29.1-14.3-16.2-11-24.9-21.2-25.8-30.2-1.1-10.7,3.2-20.5,6.6-28.3,1.6-3.6,3-6.9,3.5-9.2.8-3.8,2-8.2,3.2-12.4.4-1.4.9-3.1,1.3-4.8-.7-.8-1.4-1.6-1.9-2.7-.1,0-.2,0-.3-.2-.7-.4-1.5-.9-2.4-1.5-2.2-.2-6.1-.4-9.6-.3-2,2.8-5.9,6.3-13.6,6.3-18.7,0-18.7-16-18.7-21.2,0-8.5-1.2-15.3-2.1-17.3-1.4-1.2-5.2-4.6-8.9-7.8-37.9-33.2-40.2-36.6-41.2-41.4-.2-.9-1.4-3.5-2.7-6.1-2-4.2-5-10.6-8.7-20.1-5.9-15.1-5.2-31.3-4.5-38.7-3.3-4.6-10.1-12.7-13.2-14.4-2.5-.5-6.5-.3-9.6.2-1.4,1.9-3.7,3.6-7.2,4.2-.8,0-1.8.2-3.1.4-2.1.2-5.2.4-9.3.6-7.3.4-18.1.8-31.9,1.2-23.3.7-55.7,1.5-96.4,2.4-51.5,1.1-103.4,2.1-127,2.5.1,1.5.2,3,.3,4.7v1.1s.1,0,.2.2c5.8,5.7,18.1,17.6,21.2,35.2,6,.2,12.7,3.2,17.2,11.4.7-.5,1.4-1.2,2-1.7l6.7-7,7.2,6.5c2.7,2.4,5.8,7.3,6,13.7.4,7.9-3.4,16.1-11.2,24.4-1.6,1.8-1.8,3.1-1.7,4.2.5,6.1,8.9,14.4,12.7,17.3l3.8,2.9v3.7c.3,1,1.7,4,7.6,5.3,2.6,0,5.7.6,8.3,2.6,2.6,1.9,5.6,5.7,5.6,12.6v211.5h-.5v38.7c58.7-2.6,335-14.8,346.8-15,5.8-.2,10.8,1.9,14.7,5.9,7.4,7.6,7.6,19.9,7.4,23.6.2,4.6-.1,10.2-4.2,14.2-3.8,3.7-8.3,3.7-10.7,3.5-1,1.2-2.3,3-3.2,5,5-.2,13.9-1.2,29.2-4.1,1.6-.3,2.7-.5,3.6-.7.9-1,2.2-2.5,3.6-4.4-2.1-1.1-4.2-2.7-5.4-5.7-1.1-2.7-1-5.7.3-8.3.8-1.8,5.6-13.7,6.5-16.1.6-2.1,2.4-5.5,7.4-12.6,5.3-7.4,9.3-11.3,13.4-12.8,2.2-2.5,5.9-9.6,6.7-12.4.2-4.1,1.7-6.7,2.7-8.3.5-.9,1-1.7,1.3-3.5-.6-.4-1.1-.9-1.5-1.3-1.3-.6-3.8-1.5-7.4-2.1h0l.3-.2h0Z"/>
  <path id="South_Dakota" class="st2" d="M2671.8,1010.2c0-3.5,0-5-.1-6.4v-2.2c-1.2-1-2.6-2.6-3.8-4.8-3.1-5.8-2.1-11.7-.2-15.2l2.8-5.3h6.4v-166.2c-14.8-8.7-22.5-18.9-22.8-30.4-.3-12.5,8.5-22.1,15.1-27.5h-7.5c-135.8,0-436.9-20.2-495.1-24.2l-7.3,84.5h0l-16.3,190.9c138.8,7.4,385.9,20.5,394.8,20.8,3.7,0,8.5,1.2,11.6,7.1,1.2.6,2.4,1.3,3.5,1.9,1,.6,2.3,1.4,2.9,1.6,2.8,1,5,2.7,6.7,4.1.4.3.8.7,1.2.9,1.8.4,3.6,1,5.3,1.9v-.9h10.6c1.7,0,40.6-.2,45.3-.2,7.7,0,19.1,4.4,25.9,9.9,1.8,1.5,5.1,2.2,7.7,2.7,2.2.4,4.2.8,6.1,1.8,0,0,1.5.9,3.6,2.3.4-.8.9-1.6,1.5-2.4.1-.6.4-2.3.5-6,.3-10.9,2.7-15.2,5.4-18.9.9-1.2,1.1-1.5,1.4-3.8.3-2.5.2-2.7-.9-4.2-1.6-2.2-4.2-5.8-4.2-11.8h0Z"/>
  <path class="st2" d="M3994.4,1262.6c1.6,5.4,3.1,10.9,3.4,15.6,3.3-3,9.9-9.6,14.2-13.8,7.8-7.7,10.6-10.5,12.3-11.9.3-.5.7-1.2,1-1.8.2-.3.4-.7.5-1-11.4,2.4-22.5,4.8-33.1,7.1.4,1.7,1.1,4,1.6,5.8h.1Z"/>
  <path id="Nebraska" class="st2" d="M2742.1,1306.8c-2.9-2.8-5-4.9-5.7-8.4-.3-1.3-.4-2.9-.5-6.2-.1-1.9-.3-6-.6-8.2-1.7-2.3-3.9-6.1-6.7-12.6-5.1-12.1-4.9-17.7-4.3-20.9.3-3.9-2.1-20.9-4.7-34.4v-.6c-.1,0-.2-.6-.2-.6-.5-6.7-1.6-14.2-2.7-18-6.5-2.6-12.2-10.2-12.2-25.2s-1.1-10.4-2.1-16.2c-.9-5.1-1.8-9.9-2-14.1-.6-1.4-3.1-4.5-4.8-6.6-5.3-6.5-12.5-15.5-12.5-27s-1.5-9.4-2.8-11.9c-2.1-.7-3.9-1.7-4.9-2.3l-.6-.3c-.1,0-11.4-6.2-13.5-15.5-1.2-1.4-3.8-3.7-5.3-4.7-.4,0-1-.2-1.4-.3-4-.8-10.7-2.2-16.4-6.8-3.8-3.1-10.9-5.4-13.2-5.4-3.4,0-25.7,0-37.6.2-.5.9-1.2,1.7-2,2.4-2.6,2.5-6.3,3.7-9.9,3.2h-.6c-5-.7-11.8-1.5-15.4-7-4-.7-7-3-9.2-4.8-.5-.4-1.2-.9-1.6-1.2-2.1-.8-4.1-2-5.8-3-.9-.5-2.2-1.3-2.7-1.5-3.3-1.1-5.3-3.1-6.6-5-36.1-1.7-275.5-14.4-392.3-20.6l-14.9,174.6,146.7,9.7-5.4,100.9c60.4,3.4,378.7,20.9,489.2,19.9-2.8-10-10.6-17.6-14.9-21.7h0Z"/>
  <path class="st2" d="M3257.6,1617.1c-.3-.9-.5-1.8-.5-2.5,0,.9.3,1.8.5,2.5Z"/>
  <path id="Iowa" class="st2" d="M3142.4,1115.6c-23.1-15.9-30.2-31-34.9-41.1-3.7-8-3.9-8-7.4-8.1-11.2-.3-18.3-2.5-23-7.1-5.1-5-5.6-11.2-6-15.7,0-1-.1-2-.3-2.9-.2-1.3-.8-2.2-2.7-4.6-2.7-3.4-6.9-8.5-7.1-16.8-.2-8.2,3.2-14,5.5-17.8.8-1.3,1.5-2.5,1.8-3.3-.9-.9-2.8-2-3.5-2.3-1-.5-1.9-1.1-2.9-1.9-1.6-1.3-2.8-3-3.7-6-59.1,4.3-307.6,7.6-361.5,8.2h-5.5c.2.9.3,2,.3,3.1v3.6c0,1.5.1,3.1.1,6.7.1.2.3.4.4.6,2.8,3.9,5.7,8.8,4.6,18.3-.8,6.8-2.9,10.2-5,13.1-.9,1.2-1.5,2.1-1.7,7.8-.2,8.1-1.3,12.2-3,15.2,3.3,2.5,6.5,6,8.2,13.2.5,2.1.7,4,.8,5.6,3,4.6,6.9,12.9,6.9,24.3s4.3,9.8,8.1,14.4c4.3,5.3,8.8,10.9,9.2,17.7.2,3.1.9,7.5,1.8,12.1,1.2,6.7,2.4,13.6,2.4,19.7s.4,5.4.8,6.7c9.2,2.2,11.3,14.7,12.4,21.1,1,5.8,1.5,11.6,1.6,13.4,2.8,15.1,5.8,34.1,4.6,41.2.1,2.4,2.3,8,4.3,12.4,99.1-1.7,241.8-4.6,268.1-6.5,2.1-2,4.8-3.4,7.3-3.9,1.2-.3,12.4-2.6,21.4-.4,3.3.8,8.8,3.1,18,14h0c1-5.3,2.5-8.1,3.9-9.9,3.4-4.5,8.4-5.9,11.6-6.8.5,0,1.1-.3,1.6-.4.9-6.4,3.1-12.3,4.3-15.4,2.7-6.8,5-10.4,8.1-12.3,1.1-1.2,2.8-3.8,3.5-5.2v-.7c-.2-.2-.8-.5-1.9-.8-12.7-3.7-16.1-14.1-16.1-19.7v-1.2c2.8-22.6,26.8-27.9,35.9-30,.8-.2,1.8-.4,2.2-.5,1.7-.8,4.1-2.4,7-4.2,2.1-1.3,4.4-2.8,7.1-4.5.9-.5,1.3-.9,1.6-1.1,0-.4.2-1,.2-1.5.2-1.5.6-3.5,1.2-6,1.6-5.9,5.7-9.5,9-12.3,3.5-3.1,5.6-5,6.3-8.8,1.2-5.7-5.2-11.8-6.3-12.8h.4,0Z"/>
  <path id="Nevada" class="st2" d="M892.8,1192.1l308.1,462.2c1.3-6.9,3.4-22.1,2.4-47.1-1.3-34.3,3.3-44.7,11.3-50.2h.2c8.5-6.6,25.1,1.1,25.3,1.1l.9.4c1.3.6,5.3,2.6,7,2.8,3.6-.2,8.2.9,11.2,6.7.9-.9,2.1-1.7,3.5-2.3.6-.3,5.6-2.7,5.2-9.3-.5-8.6,2.1-14.7,3.9-19.2,1.2-3,1.9-4.6,1.8-6.2-.4-6.9,2.1-12.2,4-16.1.5-1.2,1.3-2.8,1.5-3.6-1.1-5.6-.6-10-.2-13.2.2-1.2.3-2.3.2-3.1,0-2.1-.2-3.8,50.6-249.2,20.9-101.2,42.1-203,48.5-234.1l-412.5-97.6-73.1,277.7h0l.2.3h0Z"/>
  <path id="Wyoming" class="st2" d="M1663.6,768.3c-1.3,16.8-3.6,26.6-7.6,31.8-15,116.6-39.5,239-41.1,246.9l-10,85,145.1,23.4v.4c47.7,8.2,243.9,29,356.3,40.5l32-375.2c-80-5.8-410.1-50.8-472.6-59.4-.8,2.7-1.6,5.1-2.2,6.6h0Z"/>
  <path id="Kansas" class="st2" d="M2801.4,1410c-5.4-4.7-16.7-16-17.8-29.3-.6-7.2,1.8-14,7-19.6.2-.2.5-.5.7-.8-.5,0-1,0-1.6-.2-3.1-.6-8.9-2.7-12.3-10.4-.5-1.1-.9-1.7-1.2-2l-.9.4h-1.8c-93.5,3.4-441.8-15.8-507-19.5l-14.8,279.9c151.8,7.7,453,21.6,569.8,16.7v-197.9c-13-3.4-18.2-12-20.1-17.4h0Z"/>
  <path id="Arkansas" class="st2" d="M3190.6,1730.7c-7.1,0-11.7-1.2-14.9-3.6-2.9-2.2-4.7-5.3-5.1-8.8-.9-8.1,2.8-15.7,5.1-19.5,2.2-3.7,6.8-10.2,12.9-12.3.5-.2,1-.3,1.4-.4-.1-3-.8-6.3-1.6-7.4h0c-11.4.3-284.5,12.3-345.1,15,4.8,22.9,14.6,70.7,14.6,84.5s-.4,148.2-.6,181.3c.3.2.6.4.8.7.6.5,1.3,1.2,2,2.1h34.2v54.8l224.6-4c.3-3.7,1.1-7.8,3.1-11.3.3-1.6-.4-5.8-5.2-16.5-.6-1.3-.9-1.6-1.3-2.1-4.2-4.3-4.9-8.4-4.9-15.4s6.4-18.5,11-24.9c.6-.8,1.4-1.9,1.9-2.7-.5-9-.6-17.6,4.4-22.9,1.2-1.3,2.7-2.3,4.2-3,1-3.1,1.9-8.7,2.4-11.7.4-2.2.7-4.3,1.1-6,2.6-11.8,12.6-17.6,17.4-20.3,1.9-1.1,3.4-3,4.6-5.6,2.3-5.4,5.7-17.2,5.7-22.5s0-2.5-.1-3.7c-.2-5.7-.6-12.8,7.4-19.6,3.8-3.2,7.1-4.6,10.2-5,.4-2.9,1.1-6.2,2.5-9.4,2.3-5.3,6.4-8.2,9.4-10.4,1-.8,1.8-1.3,2.4-1.8-2.1-2.4-4.6-6.4-4.6-12.8s.9-11,3.1-15.8c.5-1.1,1.1-2.3,1.8-4.1,2.2-5.5,5.8-7.9,8.9-9.1.3-12.3,3.7-17.3,6.8-21.1h0c1-1.3,2.2-2.3,3.6-3.4.8-.7,2.4-2,3.4-3-.1-.4-.3-.9-.4-1.3-11.9,2.1-20.7,3.1-27.2,3.1h.1Z"/>
  <path id="Oklahoma" class="st2" d="M2821,1685.2v-39.9c-148.4,5.9-580.6-17.2-651-21l-2.3,27.3c36.6,3.2,162.1,11.5,230.5,15.8l9.4.6v40.3l-6.1,110.6c0,6.1.3,30.3-.2,40.2.2,0,.4.2.5.3,2,.9,4.5,2.1,6.8,4,1.7,1.4,3.3,3.1,5.2,5.1,3.3,3.6,7.9,8.5,11.7,9.5,1.8.5,2.9,0,6.6-2.2,2.4-1.4,5.2-3,8.7-3.9,11.4-2.8,19.2,7.9,22.2,12,0,0,.1.2.2.3,3.7,3.5,3.3,8.5,2.8,13.4,2.9.2,6.2.5,9.7,1.2,4.4,1,7.1,2.2,8.9,3.1,1.7.8,1.8.8,3.6.7,5.8-.3,24.1-.4,30.8,8.9,5.3-2.8,17.3-8.7,30.4-3.2,10.7,4.5,13.7,8.8,16,16,.3.9.5,1.7.9,2.6.5,1.3,1.2,2.5,1.8,3.3,3.4-3.2,8.8-7.9,16.6-7.4,5.8.3,11.3,3.6,16.3,9.6,1.8,2.1,2.4,2.5,8.2.3,3.6-1.4,9.1-3.4,14.4-.2,1.2.7,3,2.1,4.3,4.5,3.8-5.9,9-13.4,17.1-13.6,4.2,0,8.1,2,10.6,5.7.9,1.4,1.7,2.6,2.2,3.6.1.2.2.4.3.6h5.1c9.8-.7,14.4-.4,20.1,5.4,1.1,1.1,2.1,2.2,4.6,3.8,5.8,3.9,9.6,4.6,13.6,4.7,1.5-2.7,4.2-6,9.4-8.5,7.6-3.7,15.2-3.4,20.7-3.2,2.3,0,4.5.2,6,0s4.1-1.2,6.4-2.2c2.8-1.1,5.7-2.2,8.6-2.8,9-1.8,13.2,3.1,14.7,5.3.2.2.7.5,1,.6.3,0,1.2-.3,2.6-1.7,5.9-5.8,12.1-8.7,18.3-8.4,4.7.2,9.1,2.1,12.5,5.6,2.1,1.4,9.3,5.2,14.7,8,10.1,5.3,16.7,8.9,21.1,11.6.1-42.5.5-159.8.5-173.3s-9.9-61.2-16.6-91.8l-.2-1.1h-.2Z"/>
  <path id="Colorado" class="st2" d="M2124.6,1218.3l-10.1-1c-13.1-1.3-300.9-30.5-367.2-41.6l-52.5,374.3,467,53.9c3.1.2,29.4,1.6,70.1,3.7l20.2-381.1-127.4-8.4v.3h-.1Z"/>
  <path class="st2" d="M4055.2,1245.3c.6,0,1.1.2,1.4.2.4-.6.9-1.6,1.4-2.7-2.2.5-4.3.9-6.5,1.4.9.4,2.1.7,3.6,1.1h.1Z"/>
  <path id="RhodeIsland" class="st2" d="M4532.6,924c-.9-2.2-1.1-4.4-1-6.7-2.2-2-4.9-5-5.9-8.9-1.9-1.7-4.1-4.7-4.6-9.6h-.2c-1,0-2.2.4-2.9.7-1.8,2-4.3,3.5-6.8,4.8l14.8,53.5c6.7-4,11.8-8.2,13.7-12.4,1.6-3.5,3.3-6.8,5.1-9.8h0c-10.7-7.8-11.3-9.1-12.2-11.3h0v-.2h0Z"/>
  <path id="Florida" class="st2" d="M4165.3,2542.2c-6.9-15.8-9.5-39.7-26.2-47.5s-7.5-10.6-5.2-10.6,8.9,1.7,3.7-4.9c-5.2-6.6-4.6-16.4-15.5-27.4-10.9-10.9-21-40-32.2-50.1s-25.1-38.9-25.1-47.2-18.7-53.8-27.9-57.6c-9.2-3.7-54.4-105.6-54.7-106.5s-6.6-13-10-21.6c-7,1.1-13.8,1.7-17.7,1.2-1.3-.2-2.4-.3-3.4-.4-4.8-.5-7.9-1.2-12.4-4.3-.5.4-.9.8-1.2,1.1s-.9.8-1.4,1.2c0,.1,0,.2-.1.3,0,.1-.1.3-.2.5,1.4,1.8,2.9,4.1,3.4,7.1.5,2.8.6,8,.7,16.2,0,3.1,0,6,.2,7.7.2,4.3-1.4,8.2-4.5,10.8-3,2.6-6.5,3.2-9.4,3.2s-4.3-.4-5.5-.7h-.2c-3.9-.8-6.4-2.7-13.9-14-8.6-1-27.5-3.1-38.7-2.9-12.3.2-70.8,8.7-92.3,12h-1.2c-.2.1-23.8.9-47,1.3-13.7.2-24.7.3-32.6.1-4.9,0-8.6-.2-11.3-.5-3-.3-11.8-1-13.1-9.1-.8-2.2-3.9-8.2-7.4-14.7-1,.2-1.9.4-2.8.6-5.9,1.3-14.5,2.7-25.5,4.3-18.2,2.6-43.6,5.5-75.4,8.8-41.3,4.2-83.1,7.9-100.6,9.4l-.2,3.9c2.1,1.7,4.4,3.8,6,5.3s.7.6,1.2,1c2.7,2.1,8.2,6.4,8.2,15.6s-.7,6-1.6,7.8c0,.2,0,.5.1.9.8,5,1.4,8.7,1.7,11,.2,1.2.3,2,.3,2.5.1.9.1,1.6,0,2.4,3.4.3,10-2.8,8.8-6.1-1.6-4.3-1.3-12.6.9-14.8s3.8-4.9,9.5-2.6c5.7,2.4,10.4-1.6,12,7.5s5.2,5.3,9.1,5.8c3.9.5,22.3,1.9,31.4-11.7s23.6-.9,26.2,1.2c2.6,2.1,6.7-4.8,8.8,4.8,2.1,9.5,6.3,12.5,11.6,13.2s10.7,0,12-2.5c1.2-2.5,12.7-4.2,15.9-3.4,3.2.9,4.4-3.5,5.5,3.7s-4.9,3.2-4.8,8.4c.2,5.3,12,9,13.4,4.9s2.8-5.1,5.3.5,5.6-3.9,7.6,6c1.9,9.9-.2,4.1,1.2,10.7s2.6.5,5.5,6.5,1.6.7,2.8,7.4,19.6,5.3,25.2,1.1c5.6-4.2,3.5-9,6.5-8.8s7.2.9,11.4.2-.5-4.6,5.6-4.4c6.2.2,1.9-4.6,6.3-4.2,4.4.4,6.7-3.7,9-5.1,2.3-1.4,2.8-3.9,5.8-5.1,3-1.2,3.2-2.6,3.7-5.6s4.8-4.9,4.8-7.4-3.4-7.2.7-6,19.1-1.4,21.8.8c2.7,2.1,17.6-2.7,19.2,2.1,1.5,4.9,6.4-7.9,15.2,7.3s12.2.6,17.6,18.3,9.7-4,11.9,6.4,24.6,35.9,50.5,42,19.8,0,19.8,11.1,21.7,22.6,16.6,82.6c0,0-6.6,2.2-8.7,21.2s4.7,23.3,9.4,23.3,13,1.7,12.4-1.7-2-8.6-6.3-10.9c-4.3-2.3-13.8-7.2-4.3-7.2s9.5-6.3,14.4,1.4,18.4-.9,18.1,9.2c-.3,10.1-7.5,16.7-10.4,20.7s-2.3,8.1,4.6,9.5c6.9,1.4,5.2,4.3.9,7.5s-12.7,8.6,3.7,25.9,15,30.2,23.6,31.4c8.6,1.1,7.5-6.6,3.7-9.2-3.7-2.6,6.6-6.1,10.4-7.8,3.7-1.7,6.3-2.9,9.8-2.3,3.4.6,2.6,8.9-1.7,9.5s-1.1,16.4-1.1,23,.3,1.4,2.3,6.6c2,5.2,10.4,9.8,10.4,5.2s.3-11.2,4.6-11.2,4.9-10.6,6.1-3.7c1.1,6.9-4.6,1.4-4.3,8.4.3,6.9.6,17.3,4.5,21s9.9,19.6,14.2,32.8,29.9,11.5,43.8,12.9c13.8,1.4,11.8,2,11.8,9.8s2.6,23,17.9,32.5c15.3,9.5,15.3,7.8,15.3,12.1s3.2,7.5,0,7.5-14.4-6.3-17.9-6.3-9.5,0-6.9,5.2,8.6,8.6,10.7,8.6,4,0,12.4-.9,8.9-9.5,20.4-7.8,12.1-4.3,20.7-4.6,12.7-11.8,10.9-19.9-1.5-23,.4-28.8,8-23,5.4-28.8,2-59.6-4.9-75.4h0l.3.3Z"/>
  <path class="st2" d="M3474.6,2258.3h-.4.4Z"/>
  <path id="Georgia" class="st2" d="M3969.1,2013.7l.4-6.9c.4-6.9-1.2-16.7-3.5-18.4-14.3-1.6-20-11.5-22.8-16.3-.2-.3-.4-.7-.6-1.1-4.8-3-7.1-8.7-8.7-13.6-1.6-4.9-2.5-9.7-2.7-11.2-.9-2.7-5.4-9.3-8.9-9.5-14.4-.8-26-16-31.6-25-.8-1.3-1.4-2.7-2-3.8-1.8-3.9-4.8-10.5-28.1-23.9-26.5-15.2-43.4-36.1-53.5-48.5-2.2-2.7-4.1-5.1-5.5-6.6-3.2-3.4-4.6-6.7-5.2-9.4h-.7c-12.9-1.6-18.5-5.6-23.4-9.1-2.8-2-5.2-3.7-9.6-5.4-6.4-2.6-13.3-5.9-15.1-13.2-1.8-7.5,3-13,8-18.8.6-.7,1.2-1.4,1.9-2.2.4-.4.7-.8,1-1.2l-171.9,24.7,66.5,223.4c4.9,5.2,11.2,13.6,11.5,21.2.2.6.9,1.8,1.3,2.6,1.2,2.2,2.5,4.6,3.1,7.6,1,5.4-1.1,10.5-5.6,13.6-.5.5-2.2,4.1-1.9,12.6.1,2.7,0,5.6-.3,8.8-.6,8.5-1.2,19.1,3.3,30.5,5.9,14.9,3.9,23.3,2.4,30-.6,2.5-1.1,4.5-1,6.7,0,1.3.5,2,3.3,4.7,2.9,2.8,7,6.9,8,13.3,5.4,9.6,8.5,15.8,10.4,19.8,13.2.7,51.2,0,85.6-1.1,7.7-1.2,78.8-11.8,94.4-12.1,16.3-.3,45,3.4,46.2,3.6l4.6.6,1.3,2c0-.7,0-1.4-.1-1.9-.1-.2-.3-.3-.4-.5-1.9-2.3-7.7-9.3-2.7-17.3.4-.6.7-1.4,1.1-2.2,1-2.3,2.4-5.7,6-8.1.2-.1.4-.3.6-.5,1.7-1.5,4.4-3.9,7.8-5.4,5.8-2.6,11.9-1.9,16.8,1.9,1.6,1.3,2.1,1.5,2.2,1.5.3,0,1.4.2,2.3.3,1.1.1,2.4.2,4.1.5,1.5.2,5-.2,9.5-.8h0c-2.3-8.2-4.7-17.3-3-19.2,2.9-3.2-6.6-6.3-3.2-11.8,3.4-5.5,10.4-3.5,12.9-3.5s5.5-11.8.6-13.2-.9-9.8,3.2-10.4c4-.6,8.6-8.4,7.2-11.2s1.7-6.3-2.3-11.2-6.9-10.9-3.7-10.9h0c-1.7-.2-6.1-1.6-6.1-7.8,0-8.9,1.1-11.5,5.2-12.4s7.8-.9,10.9-.9,10.6,2.9,10.6-.9,1-5.9,0-9l-30.2-13.3h0v-.2h0Z"/>
  <path id="Alabama" class="st2" d="M3448.6,2188.8c82-6.8,173.1-16.1,203.7-21.9-2.9-3.4-6-8.2-6.2-15.1-.2-4.8.7-8.6,1.5-11.9,1.2-5.2,2.1-8.9-1.5-18-6.2-15.6-5.3-29.8-4.7-39.2.2-2.7.3-5.1.3-6.7-.4-11.3,1.8-20.1,6.4-25.8-1.4-2.7-3.1-6.1-3.2-10.3-.7-2-4.2-6.7-7.5-10l-1.8-1.8-68.9-231.5c-66.8,4.3-157.4,10.4-189.1,12.8,4.3,3,4.7,7.5,4.7,9.1,0,5.3-3.4,8.5-5.8,10.3-.5,32.3-4.2,254.5-4.7,284.8l17.9,146.6c1.5-.9,2.8-1.2,3.9-.5,3.3,2.3,6.7,6.5,9.8,4.2,3.2-2.3,4.3-4.4,3.6-9.8s-.7-7.9.2-10.6c.9-2.7,3-11.8,1.5-15.3-1.6-3.5,9-6.3,9.1-.6s2.5,7,4.3,7,1.1-1.6,1.1,4.1,2.1,6.1,2.7,9.9c.6,3.8-2.3,10.2,1.1,11.8,3.4,1.6,5.5,1.4,8.1,4.8,2.7,3.3,1.3,4.8,4.9,4.6,3.6-.1,6.3,1.8,9.7.7s1.3-8.6,5.7-8.3h.2c-.5-.9-.9-2.1-1.1-3.3-.1-.6-.3-1.4-.4-2.1l-.6-3c-.3-1.9-.4-4.6-.9-8.2-.7-4.4-.8-8,.9-11.5h-.1c-.9-.8-1.9-1.6-3.1-2.7-1.7-1.7-6-5.2-8.3-7l-4.1-3.2,1.8-31.6,8.7-.7h.2Z"/>
  <path id="Mississippi" class="st2" d="M3351.8,2113.8c0-2.9,4.8-284.9,4.8-289.1s.7-4.4,1.7-6.1c-.3-.7-.6-1.3-.9-2.1l-156.9,7.5v.6c-.6,4.6-1.9,14.3-11.3,15.4-2.2.3-4,0-5.2-.2,0,0-.1,0-.2.2-.2.2-.4.4-.5.5v3.1c0,1.3.1,2.8.1,4.6,0,9.9-5,25-7.3,30.4-3.1,7.1-5.5,10.8-13,15.1-4.4,2.5-7.2,4.6-7.8,7.3-.3,1.2-.6,3-.9,5-.7,4.2-1.6,9.4-2.9,13.8-2,6.6-5,10.1-8.1,11.9-.1,2.5,0,6,.2,7.4,0,1.2.1,2.2.1,3.1,0,4.5-2.5,7.9-5.9,12.6-2.5,3.4-7.1,9.8-7.1,13.1s0,1.8,0,2.3c1.2,1.3,2.8,3.4,4.4,7,4,8.8,10.6,23.6,4.6,34.3-1,1.8-.9,7.1-.4,9.7l2.1,11.6h-1.8c.3,4.3.8,8.4,1.7,10.5,2.2,5.2,2.8,9.5,3.2,12.6.3,2.1.4,3.2.9,4.1,2.5,5,4.6,7.2,5.5,7.7,5.6,3.4,8.8,10.2,9.8,15,1.1,5.2.2,10.1-2.5,13.8-2.1,2.9-5,4.6-8,6,1.3,2.9,1.7,6.1,1.7,8.9,0,13.8-7.6,18-11.2,20.1-.1,0-.2.1-.4.2-.3.6-.6,1.3-1,2.1-1.4,3.1-3.3,7.3-8.1,10.9-.4.3-.9.6-1.3,1-1.3.9-4,2.8-4.9,4,.2.9.6,2.5.9,3.5,1.2,4.4,2.9,10.4-1,15.7-2.2,3-5.6,4.6-9.6,4.7h0c0,3.8-.2,5.6-.3,6.8v.6s0,.4.2,1.6c.9,5.8-1.6,10.4-3.5,13.9-.8,1.5-1.8,3.3-1.9,4.2-.2,1.6.7,3.8,1.6,5.8.6,1.4,1.3,2.9,1.7,4.6,0,.4.3,1.2.5,1.5.2.1,1.7.5,4.7,0,13.8-2.2,128.3-7.4,141.3-8l11.2-.5-.7,11.2c-.2,2.9-.9,12.6-2.7,17.4-.6,1.7-1.3,3-1.8,3.9,0,.1-.1.3-.2.4,0,.2,0,.6.2,1.2.6,2.7.8,5,1,6.8.3,3,.4,4.3,2,6.9.7,1.1,1.1,1.3,2.5,2.1,2.8,1.6,7.9,4.6,9.3,12.7.4,2.5.5,4.4.6,6,0,1.6.4,2.8,1,3.4,3.6,4.5,5,10.4,5.6,14.7.1,0,.3,0,.4-.1,5.1-1.8,8.3-1.1,8.3-6.5s-4.8-10.3,1.1-11.8c5.9-1.5,35.4,3.8,36.5.1,1.1-3.6,14.7-4.4,19.4-3.3,3,.7,10.9.7,17.5,0l-18.9-154.2v-.7h0v-.5h-.1Z"/>
  <path id="South_Carolina" class="st2" d="M4001.9,1749.5h-1.1c-9.7-.7-21,.2-23.7,1.8-8.4,4.9-14.5,3.5-18.1,1.4-4.4-2.5-7.2-7.4-7.4-12.8-.3-1.6-1.4-5.1-2.5-7.6-4.1.2-8.5-.2-11.6-.5h-41.4l-35.5,3.2c-4,.9-27.5,5.9-36.1,8.2-5.4,1.4-25.9,12-41.2,20.3-1.1,5.1-3.8,12.5-10.3,20.2-.7.8-1.4,1.6-2,2.3-.1.2-.3.3-.4.4,6.4,2.6,10.3,5.4,13.4,7.6,4,2.8,6.4,4.5,14.3,5.5,7,.9,12.6,1.9,15.9,6.5,2.6,3.6,2.4,7.3,2.1,9.2h0c1.8,2,3.8,4.5,6.4,7.6,9.2,11.4,24.6,30.4,47.9,43.8,26.6,15.3,32.6,24.7,36.3,32.9.3.6.6,1.3.7,1.5,6,9.6,12.7,15.4,15.8,15.6,16.4,1,26.3,18.9,27.4,25.9.7,4.4,2.2,9.7,3.3,11.9,3.2,2,4.9,5,6.4,7.6,2.3,4,3.6,6,7.7,6.4,6,.7,16.5,4.6,20.1,23.1.6,3.3.9,6.5,1.1,9.2l14.9,6.6c.6-5.2,2.3-14.1-.5-16.8-3.4-3.4,4-7.2-3.2-10.7-7.2-3.4-7.2-3.2-7.2-6.6s4.3-4,6.3-4,6.3-4.3,6.3,1.4-1.1,4.9,1.1,8.6c2.3,3.7,4.6-2,5.8,4s.3,6.1,3.2,6.1,4,3.4,7.2,1.4,8.1,5.5,7.8-3.7-3.2-12.1-9.5-14.7-10.9-6.1-6.3-7.2c4.6-1.2,14.4,5.2,14.7-.6s-2.9-6.6.3-11.5,9.8-6.6,9.8-1.2-2.6,10.7,3.2,9.2c5.8-1.4,32.5-10.7,28.8-21.9s-8.9-7.2-8.6-15c.3-7.8-2.6-8.3,1.7-8.3s15-4.6,15,.3-1.7-3.4-1.7,8.9,12.7,1.2,12.7-10.4,12.4-11.8,18.1-13.5,8.6-13,8.1-18.7c-.6-5.8,0-16.7,9.5-25.3,9.5-8.6,1.7-24.2,12.7-26.8s4.6-12.7,13.2-17.6c1.4-.8,2.5-1.4,3.5-2l-103.4-69.5-50.8,8.1h0l-.2.2h0Z"/>
  <path id="Virginia" class="st2" d="M4313.9,1479.4c-3.1-.6-18.6-14.5-26.7-3.5s-22.3,15.7-21.7,4.4-.3-11.6-8.2-11c-7.9.6-4.7-7.1-10.1-9.7s-19.8-2.6-23-4.8c-3.1-2.2-3.8-11.3,2.8-11.3s9.4-2.8,12,0c1.3,1.4,4,.9,6.5,1,2.5,0,4.7.7,4.8,4.3.3,7.2,4.3-5.2.4-9.6s-11-1.3-9.7-5.2-4.2-4.7,3.1-4.4,7.3-1.3,11.2,3.1c3.9,4.4,6.5,7.1,6.5.5s9.4-12.5-.3-19.8-18.5-4.2-27.7-15.4-25.3-15.7-19.6-18.5c5.7-2.9,26.4,7.3,30.8,12s5.2,10.4,12.5,6.3c7.3-4.2,1.3-16.4-12.3-21.7-13.6-5.2-9.7-7.8-24.8-12.3-15.1-4.4-30.5,4.4-40.7-8.9s-15.1-5.7-11-19.1c2.5-8.1,2.3-14.1,3.7-18.2h0l-2.3-1.1c2.9-5.9,5.6-12.7,6.4-15.8-.4-.3-.7-.6-1.1-.9-1-.4-2.8-1.1-3.8-1.5-1.1-.4-2-.8-2.7-1-2.8-1.2-4.6-3.2-6.1-4.8-.3-.4-.8-.9-1.2-1.3-7.4,1.2-13.6-1.4-16.7-2.6-.2,0-.3,0-.5-.2-7.1-1.6-10.2-9.3-10.7-15.3,0,0-.2-.2-.3-.3-.6-.7-1.3-1.6-2-2.6-.4,0-.8,0-1.3-.2-.5,1.8-1.1,3.6-1.7,5.5-.7,2-1.6,4.8-1.7,5.9-.9,6.6-4.8,9.2-7.1,10.1-6.2,2.5-11.1-1.3-13.1-3-.3-.2-.7-.6-1-.7-.1,0-.3,0-.5-.2-3.8-1.5-12.5-4.8-21.2-11.4-.4,2.5-1.1,4.7-1.6,6.8-1,3.6-1.8,6.7-1.8,10.9,0,15.1-13.7,24.6-21.9,30.3l-1.5,1c-8.1,5.7-14,12.8-14.5,15.2,0,6.2-3,11.7-5.6,16.6-1.4,2.7-3.4,6.4-3.4,8.1,0,6.2-3.1,11.7-8.6,15.1-6.4,3.9-15.4,4.6-21.4,1.6s-.9-.5-1.5-.8c-3.2-1.6-5.6-2.8-7.5-3.7-2.6,8.1-5.8,20.4-5.4,24.5,1.3,4.4,1.4,11.3-6.7,28.2-4.3,8.9-9.7,18.2-13.3,22.6-1.2,2.4-2.1,10.9-2.6,15.5-.5,4.5-.9,8.8-1.7,12.4-.6,2.8-2.4,11.3-10.4,13.2-1.4.3-2.8.8-4.5,1.4-3.4,1.2-7.7,2.7-13.8,3.3-.4.2-1.6,1.4-2.4,2.2-2.8,2.9-7.1,7.3-14.5,9.3-3.1.8-7.1,3.8-10.4,6.2-5.2,3.9-10.2,7.5-16.4,6.1-3.2-.8-5.4-2.6-7-3.9h-.2c-.3.3-.6.6-.9,1-11.2,12.5-22.8,13.6-26.3,13.6s-.8,0-1,0l-2.4-.2-29.5-17.8-85.2,78.2,124.8-19.8c2.8-.4,270.7-40.5,451.2-83.9.7-4.8-.9-9.4-2.5-9.7h0l.5-.2h0Z"/>
  <path class="st2" d="M4174.9,1314.3h0Z"/>
  <path class="st2" d="M4549.9,766c-.2,0,.2,0,0,0h0Z"/>
  <path id="Maine" class="st2" d="M4748.8,525c-18.1-11.7-9.7-24-18.1-24s-23.1-2-23.9-4.2-4.1-2.6-6-12,1.1-16.9-9.8-18.4-18.8-7.1-21-13.1-17.7-103.7-60.1-136.5-24.3,51.5-78.6,4c0,0-12.8-5.4-15.3,22.7s-15.8,49.1-17.5,49.1-9.1,2.5-8.4,20.4,4.2,23.1.7,31.9-4.9,7.7-3.2,21.4,11.2,20,5.6,35.8,1.8,24.2-8.4,26.3c-8,1.7-1.7,17-18.7,33.6l83.9,204.1c2.7-1.6,4-5.6,3.4-14.4-1.3-17.5,9.1-35.6,12.3-39.5,3.2-3.9.6,5.8,3.9-14.2,3.2-20.1,13-7.1,12.3-22-.6-14.9-3.2-20.1-.6-20.1s9.7-7.1,10.4,0,8.4-7.8,8.4,3.9,2.6,14.9,7.1,11.7-3.9-18.8,2.6-18.8,5.2,3.9,13.6,3.2,4.5-18.1,4.5-18.1c0,0,7.1-27.8,8.4-37.5s-2.6-10.4-3.9-18.1,6.5-5.8,10.4,3.2c3.9,9.1-2.6,23.3,3.9,23.3s13.6,20.7,13.6-2.6,5.8-14.2,11-14.2,1.3-13,11-6.5,19.4,16.8,19.4,3.9-.6-13.6,7.1-18.1,20.1-11,18.8-13.6c-1.3-2.6,1.3-12.3,9.7-14.9s29.8-5.8,11.6-17.5h0v-.2h0Z"/>
  <path id="New_Hampshire" class="st2" d="M4529.9,769.9c-1.5-2-2.3-4.1-2.3-5.7h0l-78.2-190.4c-1,.6-2.1,1.1-3.2,1.7-1.9,1-3.6,1.9-5.3,2.8,6.2,12.7,11.9,26.3,11.5,33.1-.4,5.7-1.4,9.4-2.2,12.7-.3,1-.5,1.9-.7,2.9.2.2.4.4.5.6,2.2,2.5,5.6,6.2,6.5,12s2.8,17.9-8.8,24.2c-.6.3-3.9,2.6-11.6,15.5-1.3,2.2-2.4,3.7-3.2,4.9-.2.3-.5.7-.7,1,0,.3,0,.9.1,1.7,0,.4.4,1,.9,1.7,2.5,3.1,5.2,7,5.2,14.5s-.7,10.5-2.1,15.3c-.3,1-.6,2.1-1,3.5-1.7,6.4-2.6,10.7-3.2,15.9-.6,4.7-2.4,7.3-3.5,8.9-.1.2-.4.5-.4.6,0,0-.4.9-.4,4.2v4.2c0,8,0,9.9,1.6,14,.5,1.2.8,2,1.1,2.6,2,4.4,2,6.2,1.9,12.2v4.7c0,4.4-.2,7.8-.4,10.5-.3,5-.2,5.4.2,6,1.4,2.2,5.1,8.1.4,14.8,0,.4-.2,1.3-.2,3.2s.1,2.9.3,3.9c12.2-1.5,37.7-4.5,43.9-5.3,2.1-.3,4.2-1.6,6.8-3.1,3.8-2.3,8.5-5.1,14.6-5.1s3.5,0,5.2.2c1.4,0,3.4.2,4.8.2,2.2-3.2,5.3-5.4,7.9-7.2.9-.6,2.2-1.5,2.9-2.1,1.2-6.8,2.5-11.3,9.8-16.8,1.7-1.3,4.3-2.5,7.3-3.7l-5.8-14.6h0l-.2-.2h0Z"/>
  <path class="st2" d="M4257.1,1221.9c-.1,0,.1,0,0,0h0Z"/>
  <path id="Maryland" class="st2" d="M4109.2,1232c5,2.4,10,5.5,14.5,10,2.9,2.8,4.7,5.3,5.9,7.6,13.3,1.1,17,5.2,18.8,9.1.1.3.7,1,1.1,1.5,1.6,2,4.3,5.4,4.5,10.3,1.6.6,3.5,1.2,5,.8,10.3-2.1,16.7,5.2,19.1,7.9h.1c.2,0,.4.2.6.3,4.7,1.7,7.9,3,10.2,5.3h0c2.2,1.6,8.9,6.4,7.8,16.7-.7,7.1-6.8,19.9-8.6,23.7l-2.7-1.3c-4.9,6.9-6.9,6.3-5.6,12.3s2.4,3.3,9,.4,6.4-10.6,8.2-3.3c1.8,7.3,1.3,9.3,6.2,9.3s-4.4-8.6,5.5-4.6,6.8,2.4,9.3,7.9c2.4,5.5,10.4.4,13.9,1.6,3.5,1.1,4.6-2.9,8.2,2.2,3.5,5.1,7.5,12.8,8.4,5.3s-21.6-16.6-22.5-24.1,7.7-1.1,9.7-4.2.4-8.6-2.6-15-10.6-9.5-8.6-25.2,1.1-23.4-3.8-25.6-6.4.2-10.1-7.7,2.2-8.8,6.2-9.1c4-.2,14.4,5.1,10.6-3.5s-2.4-11.5,1.1-11.5,8.2,7.7,7.7-4.6c-.4-12.4-3.8-16.3,2.4-15.4s11.5-9.1,11.5.4.4,13.2,4.4,13.2,1.4-.2,2.3-.8c-1.2-6.1-2.8-13.7-4.1-20.2-5.9.9-70.8,14.7-143.8,30.3h.2,0Z"/>
  <path class="st2" d="M4185.7,1323.9h0Z"/>
  <path id="Massachusetts" class="st2" d="M4648.4,876.5c-8.4,0-27.2,3.9-38.2,6.5s-10.4,7.1-17.5,5.8-7.1-7.1-14.2-16.2c-7.1-9.1-1.3-22-12.3-20.1s-21.4,5.2-16.8-11c4.5-16.2,22-10.4,21.4-24s-18.8-4.5-24-14.2c-.2-.4-.4-.9-.6-1.4-2.8.9-5,1.7-5.9,2.3-.9.7-1.3,1.1-1.5,1.2-.2.6-.5,2.2-.7,3.6v.3c-1.3,7.4-7.2,11.5-11,14.2-.9.6-2.2,1.5-2.8,2.1-4.7,9.6-15.8,8.9-22.5,8.5-1.5,0-2.9-.2-4-.2s-2.8,1.4-4.3,2.2c-3.5,2.1-8.4,5-14.6,5.8-8.1,1-47.1,5.7-50.4,6.1-3.2.6-24,6.4-44.8,12.3v52.3l113.4-25c2.3-.5,5.1-1.5,6.1-2.1,4.1-4.7,11.4-6.7,16.9-7s9.8,1.1,12.8,4c.2.2.5.4.8.7,2,1.7,5.7,4.7,6.9,11.4,1.6,1.4,3.7,3.8,4.4,7.8.4.3.8.7,1.1.9,2.1,1.7,5.7,4.6,5.7,9.8s0,1.4-.1,2.2c1.3,1,3,2.3,5,3.7h0c3.9-4,7.7-6.5,10.8-7.1,7.8-1.3,9.7-16.8,16.8-10.4,7.1,6.5,1.3,20.7,7.8,20.7s9.1-15.5,20.7-17.5,13-8.4,25.2-13.6,18.8-14.9,10.4-14.9h0v.3h0Z"/>
  <path id="North_Carolina" class="st2" d="M4341.6,1558c-8.2,4.7-8.8,6-8.5,14.5s-4.4,13.5-6.9,12.3,2.2-6.3-4.4-13.2c-6.6-6.9-16.4-13.8-18.2-6.3-1.9,7.6,9.4,16.7-1.9,16.4-11.3-.3-14.2-4.4-23-5s-23.6-12-19.8-15.7,4.4-21.1-2.2-25.2-10.7,8.5-12,1.9-.6-9.1,3.8-9.1,13.8-3.5,16.4,3.5c2.5,6.9,3.8-3.5,4.7,9.1.9,12.6-5,17.6,1.6,18.6,6.6.9,6,0,11.6,0s9.8-15.7,15.7-16.7c6-.9,2.5-6.6,5-12.9s12.3-7.2,15.4-2.5,11-10.1,4.7-11.9c-2.3-.7-6.8-2.7-10.9-5-163.7,38.7-392.4,74.3-436.8,81-.7,6.4-1.3,13.4-1.3,16.2,0,9.2-7.9,12.4-10.9,13.6-3.1,1.3-4.9,1.9-6.4,6.2-6,16.7-11.1,19.6-22.5,19.3h-9.2c-2.7,12.7-12,19.3-19.8,18.4-4.5-.6-7.2-3.4-9.1-5.7-1.3,1.5-2.9,3.6-4.2,6l-.8,1.5c-2.1,3.9-2.9,5.3-3.6,8.9-2.2,10.7-12.9,12.6-17.4,13.5-.6,0-1.4.2-1.9.4-3.2,2-13.2,10.8-21.1,18.2l-1.4,1.3-1.9.7c-14,5.2-17.9,5.7-19.5,5.8-1.9.3-6.1,2.1-7.5,3.2-2.7,4-6.6,5.6-9,6.5-.4,9.2-4,22.2-13.1,24-1.4.3-5.1,1.5-7.2,2.4-.9,2-2,5.5-2.4,7.9l85-12.2c9.2-5,38.8-21.1,48.5-23.7,9.9-2.7,36.6-8.4,37.7-8.6h.6l38.1-3.5h43.7c3.9.6,8.7.7,10.2.4,3.6-1.1,7.4-.4,10.6,1.8,4.9,3.6,8.5,12,10.2,18.4,9.6-3.7,24.5-3.4,30.6-3.1l56.4-9,113.7,76.4c2.6-.4,5-.5,6.6,0,5.2,1.4,3.7,2.3,7.2.9s13.8-4.9,18.7-3.7,4.9-1.4,3.7-8.3-1-14.4.6-18.7,1.1-6.3,5.7-6.3.3-2.3,4.6-7.8,1.4-3.7,5.2-6.9-.6-6.3,6-7.8c6.6-1.4,6.3-12.9,13.2-15.8s5.8-4,10.6-8.1,9.5-9.2,9.5-13.5-1.1-6.3,4.3-6.3,7.5,2.6,13.5,2,13-5.2,17.9-5.2,15-6.3,16.4-12.4,14.1-12.1,3.5-14.4-14.7-1.4-19,2.9-11.8,11.8-19.6,7.5c-7.8-4.3-23,1.2-23-5.2s-2.9-7.5,3.7-7.5,11.5.3,17-.3c5.5-.6,14.7,5.5,14.7-6.3s12.7-9.8,3.5-14.4-20.1-4.3-32-7.8c-11.8-3.4-27.1-16.7-18.4-17.3,8.6-.6,30.2,5.5,33.7,5.8s9.2,9.5,9.2-1.2,0-17.6,5.2-15.6,6,7.2,13,9.5,10.8-2.9,16.3-.6,7.3-1.3,12-8.2,0-18.2,4.7-18.2,9.4,6.3,11.3-2.8-.9-31.5-9.1-26.7h0l.2-.3h0Z"/>
  <path class="st2" d="M4525.9,957.6"/>
  <path class="st2" d="M3978.5,2057.9c.7.1.9,0,0,0h0Z"/>
  <polygon class="st2" points="3127.1 660.6 3127.1 660.6 3127.1 660.6 3127.1 660.6"/>
  <path class="st2" d="M4274.3,1206h0c0-.2,0-.4-.1-.7,0,.2,0,.4.1.7Z"/>
  <polygon class="st2" points="4274.1 1205.4 4274.1 1205.4 4274.1 1205.4 4274.1 1205.4"/>
  <path class="st2" d="M4340,1291.4h0Z"/>
  <polygon class="st2" points="4374.4 1050.2 4374.4 1050.2 4374.4 1050.2 4374.4 1050.2"/>
  <polygon class="st2" points="3656.3 1086.6 3656.3 1086.6 3656.3 1086.6 3656.3 1086.6"/>
  <line class="st0" x1="1612.3" y1="2118.8" x2="1612.3" y2="2118.8"/>
  <line class="st0" x1="1820.9" y1="2099" x2="1820.9" y2="2099"/>
  <polygon class="st2" points="3909.1 1005.3 3909.1 1005.3 3909.1 1005.3 3909.1 1005.3"/>
  <path class="st2" d="M3876,1033.3h0Z"/>
  <path class="st2" d="M3858,1047.2h0Z"/>
  <polygon class="st2" points="3999.3 2027.1 3999.3 2027.1 3999.3 2027.1 3999.3 2027.1"/>
  <path class="st2" d="M3966.8,2149.4"/>
  <line class="st0" x1="4004.3" y1="2007.4" x2="4004.3" y2="2007.4"/>
  <path class="st2" d="M3474.3,2258.2h0Z"/>
  <path class="st2" d="M3455.8,2262.2h0Z"/>
  <path class="st2" d="M3456.5,2262.2h0Z"/>
  <polygon class="st2" points="653.3 798.6 653.3 798.6 653.3 798.6 653.3 798.6"/>
  <polygon class="st2" points="800.2 426.6 800.2 426.6 800.2 426.6 800.2 426.6"/>
  <polygon class="st2" points="3287.5 2290.3 3287.5 2290.3 3287.5 2290.3 3287.5 2290.3"/>
  <path class="st2" d="M3370.6,2268.8h0Z"/>
  <path class="st2" d="M4517.4,962.2h-.1.1Z"/>
  <polygon class="st2" points="4526 957.6 4526 957.6 4525.9 957.6 4526 957.6"/>
  <path class="st2" d="M4438.1,580c.1,0,.2,0,.3-.2-.1,0-.2,0-.3.2Z"/>
  <polygon class="st2" points="4440.8 578.4 4440.8 578.4 4440.8 578.4 4440.8 578.4"/>
  <polygon class="st2" points="4424 589.8 4424 589.8 4424 589.8 4424 589.8"/>
  <g id="LabelWA">
    <path d="M1068.3,387.7l-10.7,38.8h-13.7l-17.1-61.5h15.2l9.9,39.9,10.2-39.9h12.7l10.1,39.9,10-39.9h14.6l-17.2,61.5h-13.7l-10.5-38.8h.2Z"/>
    <path d="M1146.7,417.4h-24.6l-3.3,9.1h-15.2l23.8-61.5h14.5l23.8,61.5h-15.8l-3.3-9.1h0ZM1142.6,405.9l-8.1-22.5-8.2,22.5h16.3,0Z"/>
  </g>
  <g id="LabelOR">
    <path d="M971,697.2c0,18.1-15,32.8-34.1,32.8s-34.1-14.7-34.1-32.8,14.9-32.7,34.1-32.7,34.1,14.6,34.1,32.7ZM917.6,697.3c0,10.6,8.4,19.3,19.4,19.3s19.3-8.7,19.3-19.3-8.4-19.3-19.3-19.3-19.4,8.6-19.4,19.3Z"/>
    <path d="M991.5,708.2h-.2v19.8h-14.7v-61.5h17.2c13.8,0,26.9,4.5,26.9,20.9s-6,15.1-13.7,18.2l16.2,22.4h-17.6l-14.1-19.8h0ZM991.3,679.5v17.2h3.8c6.5,0,11-3.3,11-9.1s-3.9-8.1-11.2-8.1h-3.6Z"/>
  </g>
  <g id="LabelCA">
    <path d="M832.4,1345.2c-3.5-2.2-7.8-3.3-12.3-3.3-11.1,0-19.8,8.7-19.8,18.9s8.7,19.2,19.8,19.2,8.8-1.1,12.3-3.3v14.1c-4,1.9-8.4,2.7-13.2,2.7-19.5,0-33.6-14.6-33.6-32.7s14.2-32.5,33.6-32.5,9.2.9,13.2,2.8v14h0Z"/>
    <path d="M878.6,1382.6h-24.6l-3.3,9.2h-15.2l23.8-61.5h14.5l23.8,61.5h-15.8l-3.3-9.2h0ZM874.5,1371.1l-8.1-22.5-8.2,22.5h16.3Z"/>
  </g>
  <g id="LabelMT">
    <path d="M1741.6,573.9h-14.5v-61.5h15.1l18.7,26.6,17.7-26.6h14.9v61.5h-14.5v-37.4l-17.7,25.6h-1.4l-18.5-25.8v37.5h.2Z"/>
    <path d="M1809.8,525.5h-11.7v-13.2h38.1v13.2h-11.7v48.3h-14.7v-48.3h0Z"/>
  </g>
  <g id="LabelID">
    <path d="M1349.9,800h14.7v61.5h-14.7v-61.5Z"/>
    <path d="M1372.3,800h18.6c17,0,32.7,9.2,32.7,30.7s-15.3,30.8-32.5,30.8h-18.7v-61.5h0ZM1387,848.2h4.7c9.2,0,17.2-5.8,17.2-17.6s-8-17.3-17.2-17.4h-4.7v35Z"/>
  </g>
  <g id="LabelNV">
    <path d="M1091.3,1236.6v36.7h-14.7v-61.5h14.1l26.7,36.8v-36.8h14.7v61.5h-14l-26.8-36.7h0Z"/>
    <path d="M1175.1,1273.3h-15.8l-23.1-61.5h15.8l15.6,43.7,15.6-43.7h15.1l-23.2,61.5h0Z"/>
  </g>
  <g id="LabelWY">
    <path d="M1850,977.3l-10.7,38.8h-13.7l-17.1-61.5h15.2l9.9,39.9,10.2-39.9h12.7l10.1,39.9,10-39.9h14.6l-17.2,61.5h-13.7l-10.5-38.8h.2Z"/>
    <path d="M1927.7,996.6v19.5h-14.7v-19.4l-21.4-42.1h16l12.9,28.4,13.7-28.4h14.8l-21.4,42h0Z"/>
  </g>
  <g id="LabelUT">
    <path d="M1490.5,1356.1c-16.3,0-25.5-10.3-25.5-28.5v-35h14.7v37.6c0,8.2,5.2,12.6,10.8,12.6s10.8-4.4,10.8-12.6v-37.6h14.7v35c0,18.2-9.1,28.5-25.5,28.5h0Z"/>
    <path d="M1532.3,1305.8h-11.7v-13.2h38.1v13.2h-11.7v48.3h-14.7v-48.3h0Z"/>
  </g>
  <g id="LabelAZ">
    <path d="M1425.7,1799.8h-24.6l-3.3,9.2h-15.2l23.8-61.5h14.5l23.8,61.5h-15.8l-3.3-9.2h0ZM1421.5,1788.2l-8.1-22.5-8.2,22.5h16.3,0Z"/>
    <path d="M1492.6,1808.9h-46.3l-.3-2,27.5-46.8h-24l5.4-12.7h40.9l.3,2.1-27.6,46.8h29.2l-5,12.7h0Z"/>
  </g>
  <g id="LabelCO">
    <path d="M1944.9,1372.3c-3.5-2.2-7.8-3.3-12.3-3.3-11.1,0-19.8,8.7-19.8,18.9s8.7,19.2,19.8,19.2,8.8-1.1,12.3-3.3v14.1c-4,1.9-8.4,2.7-13.2,2.7-19.5,0-33.6-14.6-33.6-32.7s14.2-32.5,33.6-32.5,9.2.9,13.2,2.8v14h0Z"/>
    <path d="M2017.4,1387.9c0,18.1-15,32.8-34.1,32.8s-34.1-14.7-34.1-32.8,14.9-32.7,34.1-32.7,34.1,14.6,34.1,32.7ZM1963.9,1388c0,10.6,8.4,19.3,19.4,19.3s19.3-8.7,19.3-19.3-8.4-19.3-19.3-19.3-19.4,8.6-19.4,19.3Z"/>
  </g>
  <g id="LabelNM">
    <path d="M1828.6,1832.9v36.7h-14.7v-61.5h14.1l26.7,36.8v-36.8h14.7v61.5h-14l-26.8-36.7h0Z"/>
    <path d="M1891.7,1869.6h-14.5v-61.5h15.1l18.7,26.6,17.7-26.6h14.9v61.5h-14.5v-37.4l-17.7,25.6h-1.4l-18.5-25.8v37.7h.2Z"/>
  </g>
  <g id="LabelTX">
    <path d="M2401.5,2189h-11.7v-13.2h38.1v13.2h-11.7v48.3h-14.7v-48.3h0Z"/>
    <path d="M2457.6,2215.1l-12.2,22.3h-16.2l18.6-32-17.3-29.5h16.2l11,19.1,11.1-19.1h15.8l-17.4,29.5,19.1,32h-16l-12.9-22.3h.2,0Z"/>
  </g>
  <g id="LabelOK">
    <path d="M2623.3,1785.4c0,18.1-15,32.8-34.1,32.8s-34.1-14.7-34.1-32.8,14.9-32.7,34.1-32.7,34.1,14.6,34.1,32.7ZM2569.9,1785.5c0,10.6,8.4,19.3,19.4,19.3s19.3-8.7,19.3-19.3-8.4-19.3-19.3-19.3-19.4,8.6-19.4,19.3Z"/>
    <path d="M2643.6,1788.3v27.9h-14.7v-61.5h14.7v27.1l19-27.1h17l-21.7,29.2,23.9,32.3h-18.6l-19.5-27.9h0Z"/>
  </g>
  <g id="LabelKS">
    <path d="M2518.2,1486v27.9h-14.7v-61.5h14.7v27.1l19-27.1h17l-21.7,29.2,23.9,32.3h-18.6l-19.5-27.9h0Z"/>
    <path d="M2592.7,1465.4c-3.1-1.5-7.8-2.5-11.9-2.5s-7.8,1.8-7.8,4.7,3.1,5.4,9.5,10c9.5,7.2,14.3,12,14.3,19.6,0,11.1-10.2,17.6-23.2,17.6s-11.7-.9-15-2.2v-12.7c3.6,1.5,9.5,3.1,14.9,3.1s8.2-2.6,8.2-5.4-3.5-5.8-10.3-10.6c-10.6-7.5-13.7-12.1-13.7-19.2s6.9-16.6,22.5-16.6,9.1.6,12.6,1.9v12.4h-.1Z"/>
  </g>
  <g id="LabelNE">
    <path d="M2428.8,1188.8v36.7h-14.7v-61.5h14.1l26.7,36.8v-36.8h14.7v61.5h-14l-26.8-36.7Z"/>
    <path d="M2477.4,1164h35.6v12.9h-20.9v11.3h18.8v11.8h-18.8v12.5h21.6v12.9h-36.3v-61.5h0Z"/>
  </g>
  <g id="LabelSD">
    <path d="M2428.7,878.6c-3.1-1.5-7.8-2.5-11.9-2.5s-7.8,1.8-7.8,4.7,3.1,5.4,9.5,10c9.5,7.2,14.3,12,14.3,19.6,0,11-10.2,17.6-23.2,17.6s-11.7-.9-15-2.2v-12.7c3.6,1.5,9.5,3,14.9,3s8.2-2.6,8.2-5.4-3.5-5.8-10.3-10.6c-10.6-7.5-13.7-12.1-13.7-19.2s6.9-16.6,22.5-16.6,9.1.6,12.6,1.9v12.5h-.1Z"/>
    <path d="M2438.3,865.5h18.6c17,0,32.6,9.2,32.6,30.7s-15.3,30.8-32.5,30.8h-18.7v-61.5h0ZM2453,913.7h4.7c9.1,0,17.1-5.8,17.1-17.6s-8-17.3-17.1-17.4h-4.7v35Z"/>
  </g>
  <g id="Label_ND">
    <path d="M2368.2,562.9v36.7h-14.7v-61.5h14.1l26.7,36.8v-36.8h14.7v61.5h-14l-26.8-36.7h0Z"/>
    <path d="M2416.8,538.1h18.6c17,0,32.6,9.2,32.6,30.7s-15.3,30.8-32.5,30.8h-18.7v-61.5h0ZM2431.5,586.3h4.7c9.1,0,17.1-5.8,17.1-17.6s-8-17.3-17.1-17.4h-4.7v35Z"/>
  </g>
  <g id="LabelMN">
    <path d="M2771.2,787.7h-14.5v-61.5h15.1l18.7,26.6,17.7-26.6h14.9v61.5h-14.5v-37.4l-17.6,25.6h-1.4l-18.5-25.8v37.5h.1Z"/>
    <path d="M2845.6,751v36.7h-14.7v-61.5h14.1l26.7,36.8v-36.8h14.7v61.5h-14l-26.8-36.7h0Z"/>
  </g>
  <g id="LabelIA">
    <path d="M2858.8,1108.9h14.7v61.5h-14.7v-61.5Z"/>
    <path d="M2920.6,1161.3h-24.6l-3.3,9.2h-15.2l23.8-61.5h14.5l23.8,61.5h-15.8l-3.3-9.2h.1ZM2916.5,1149.8l-8.1-22.5-8.2,22.5h16.3Z"/>
  </g>
  <g id="LabelMO">
    <path d="M2947.5,1526.7h-14.5v-61.5h15.1l18.7,26.6,17.7-26.6h14.9v61.5h-14.5v-37.4l-17.6,25.6h-1.4l-18.5-25.8v37.7h.1Z"/>
    <path d="M3073.3,1495.9c0,18.1-15,32.8-34.1,32.8s-34.1-14.7-34.1-32.8,14.9-32.7,34.1-32.7,34.1,14.6,34.1,32.7ZM3019.9,1496c0,10.6,8.4,19.3,19.4,19.3s19.3-8.7,19.3-19.3-8.4-19.3-19.3-19.3-19.4,8.6-19.4,19.3Z"/>
  </g>
  <g id="LabelAR">
    <path d="M2994.6,1882.1h-24.6l-3.3,9.2h-15.2l23.8-61.5h14.5l23.8,61.5h-15.8l-3.3-9.2h.1ZM2990.5,1870.5l-8.1-22.5-8.2,22.5h16.3Z"/>
    <path d="M3032.5,1871.4h-.2v19.8h-14.7v-61.5h17.1c13.8,0,26.9,4.5,26.9,20.9s-6,15.1-13.7,18.2l16.2,22.4h-17.6l-14.1-19.8h.1ZM3032.4,1842.7v17.2h3.8c6.5,0,11.1-3.3,11.1-9.1s-3.9-8.1-11.2-8.1h-3.7Z"/>
  </g>
  <g id="LabelLA">
    <path d="M2989.1,2196.7v48.2h20.8v13.3h-35.5v-61.5h14.7Z"/>
    <path d="M3054.4,2249.1h-24.6l-3.3,9.1h-15.3l23.8-61.5h14.5l23.8,61.5h-15.8l-3.3-9.1h.2ZM3050.3,2237.5l-8.1-22.5-8.2,22.5h16.3Z"/>
  </g>
  <g id="LabelWI">
    <path d="M3149.9,871.6l-10.7,38.8h-13.7l-17.1-61.5h15.2l9.9,39.9,10.2-39.9h12.7l10.1,39.9,10-39.9h14.6l-17.1,61.5h-13.7l-10.5-38.8h.1Z"/>
    <path d="M3195.3,848.9h14.7v61.5h-14.7v-61.5Z"/>
  </g>
  <g id="LabelIL">
    <path d="M3212.5,1273.8h14.7v61.5h-14.7v-61.5Z"/>
    <path d="M3249.6,1273.8v48.2h20.8v13.3h-35.5v-61.5h14.7Z"/>
  </g>
  <g id="LabelMI">
    <path d="M3506.1,1005.3h-14.5v-61.5h15.1l18.7,26.6,17.7-26.6h14.9v61.5h-14.5v-37.4l-17.6,25.6h-1.4l-18.5-25.8v37.5h.1Z"/>
    <path d="M3565.8,943.8h14.7v61.5h-14.7v-61.5Z"/>
  </g>
  <g id="LabelIN">
    <path d="M3429.2,1267h14.7v61.5h-14.7v-61.5Z"/>
    <path d="M3466.3,1291.8v36.7h-14.7v-61.5h14.1l26.7,36.8v-36.8h14.7v61.5h-14l-26.8-36.7Z"/>
  </g>
  <g id="LabelOH">
    <path d="M3717.1,1247.3c0,18.1-15,32.8-34.1,32.8s-34.1-14.7-34.1-32.8,14.9-32.7,34.1-32.7,34.1,14.6,34.1,32.7ZM3663.7,1247.4c0,10.6,8.4,19.3,19.4,19.3s19.3-8.7,19.3-19.3-8.4-19.3-19.3-19.3-19.4,8.6-19.4,19.3Z"/>
    <path d="M3722.8,1216.7h14.7v22.1h20.4v-22.1h14.7v61.5h-14.7v-26.1h-20.4v26.1h-14.7v-61.5Z"/>
  </g>
  <g id="LabelKY">
    <path d="M3592,1521v27.9h-14.7v-61.5h14.7v27.1l19-27.1h17l-21.7,29.2,23.9,32.3h-18.6l-19.5-27.9h0Z"/>
    <path d="M3667.1,1529.3v19.5h-14.7v-19.4l-21.4-42.1h16l12.9,28.4,13.7-28.4h14.8l-21.4,42h0Z"/>
  </g>
  <g id="LabelTN">
    <path d="M3454.7,1694.2h-11.7v-13.2h38.1v13.2h-11.7v48.3h-14.7v-48.3h0Z"/>
    <path d="M3500.4,1705.9v36.7h-14.7v-61.5h14.1l26.7,36.8v-36.8h14.7v61.5h-14l-26.8-36.7Z"/>
  </g>
  <g id="LabelMS">
    <path d="M3216.8,2040.4h-14.5v-61.5h15.1l18.7,26.6,17.7-26.6h14.9v61.5h-14.5v-37.4l-17.6,25.6h-1.4l-18.5-25.8v37.7h.1Z"/>
    <path d="M3309.8,1992c-3.1-1.5-7.8-2.5-11.9-2.5s-7.8,1.8-7.8,4.7,3.1,5.4,9.5,10c9.5,7.2,14.3,12,14.3,19.6,0,11.1-10.2,17.6-23.2,17.6s-11.7-.9-15-2.2v-12.7c3.6,1.5,9.5,3.1,14.9,3.1s8.2-2.6,8.2-5.4-3.5-5.8-10.3-10.6c-10.6-7.5-13.7-12.1-13.7-19.2s6.9-16.6,22.5-16.6,9.1.6,12.6,1.9v12.4h-.1Z"/>
  </g>
  <g id="LabelAL">
    <path d="M3485.4,2031.2h-24.6l-3.3,9.2h-15.2l23.8-61.5h14.5l23.8,61.5h-15.8l-3.3-9.2h.1ZM3481.3,2019.7l-8.1-22.5-8.2,22.5h16.3Z"/>
    <path d="M3523.2,1978.9v48.2h20.8v13.3h-35.5v-61.5h14.7Z"/>
  </g>
  <g id="LabelGA">
    <path d="M3765.5,2029c-19.2,0-34.1-14.7-34.1-32.8s14.9-32.7,34.1-32.7,17.5,3.5,23.2,8.7l-9.4,10.5c-3.6-3.6-8.6-5.7-13.9-5.7-11,0-19.4,8.6-19.4,19.2s8.4,19.4,19.4,19.4,13.5-5,15.6-11.8h-15.2l4.9-11.8h25.9v4.1c0,18.5-13.7,32.9-31.2,32.9h0Z"/>
    <path d="M3837.6,2017.9h-24.6l-3.3,9.2h-15.2l23.8-61.5h14.5l23.8,61.5h-15.8l-3.3-9.2h.1ZM3833.5,2006.4l-8.1-22.5-8.2,22.5h16.3Z"/>
  </g>
  <g id="LabelFL">
    <path d="M3974.3,2390.8h37.5v12.9h-22.8v13.1h20v12.9h-20v22.5h-14.7v-61.5h0Z"/>
    <path d="M4032.6,2390.8v48.2h20.8v13.3h-35.5v-61.5h14.7Z"/>
  </g>
  <g id="LabelSC">
    <path d="M3989.3,1806.6c-3.1-1.5-7.8-2.5-11.9-2.5s-7.8,1.8-7.8,4.7,3.1,5.4,9.5,10c9.5,7.2,14.3,12,14.3,19.6,0,11.1-10.2,17.6-23.2,17.6s-11.7-.9-15-2.2v-12.7c3.6,1.5,9.5,3.1,14.9,3.1s8.2-2.6,8.2-5.4-3.5-5.8-10.3-10.6c-10.6-7.5-13.7-12.1-13.7-19.2s6.9-16.6,22.5-16.6,9.1.6,12.6,1.9v12.4h-.1Z"/>
    <path d="M4043.6,1808.5c-3.5-2.2-7.8-3.3-12.3-3.3-11.1,0-19.8,8.7-19.8,18.9s8.7,19.2,19.8,19.2,8.8-1.1,12.3-3.3v14.1c-4,1.9-8.4,2.7-13.2,2.7-19.5,0-33.6-14.6-33.6-32.7s14.2-32.5,33.6-32.5,9.2.9,13.2,2.8v14h0Z"/>
  </g>
  <g id="LabelNC">
    <path d="M4026.2,1641.9v36.7h-14.7v-61.5h14.1l26.7,36.8v-36.8h14.7v61.5h-14l-26.8-36.7Z"/>
    <path d="M4119.4,1632.1c-3.5-2.2-7.8-3.3-12.3-3.3-11.1,0-19.8,8.7-19.8,18.9s8.7,19.2,19.8,19.2,8.8-1.1,12.3-3.3v14.1c-4,1.9-8.4,2.7-13.2,2.7-19.5,0-33.6-14.6-33.6-32.7s14.2-32.5,33.6-32.5,9.2.9,13.2,2.8v14h0Z"/>
  </g>
  <g id="LabelVA">
    <path d="M4076.7,1481.1h-15.8l-23.1-61.5h15.8l15.6,43.7,15.6-43.7h15.1l-23.2,61.5h0Z"/>
    <path d="M4133.8,1472h-24.6l-3.3,9.2h-15.2l23.8-61.5h14.5l23.8,61.5h-15.8l-3.3-9.2h0ZM4129.7,1460.4l-8.1-22.5-8.2,22.5h16.3Z"/>
  </g>
  <g id="LabelWV">
    <path d="M3863.5,1395.9l-9.8,35.3h-12.4l-15.5-55.9h13.9l9,36.3,9.3-36.3h11.6l9.2,36.3,9.1-36.3h13.3l-15.6,55.9h-12.4l-9.5-35.3h-.2Z"/>
    <path d="M3936.8,1431.3h-14.4l-21-55.9h14.4l14.2,39.8,14.2-39.8h13.7l-21.1,55.9h0Z"/>
  </g>
  <g id="LabelPA">
    <path d="M4043.9,1132.8v17.4h-14.7v-61.5h18.1c13.3,0,26.1,4.7,26.1,21.8s-14.2,22.3-26.3,22.3h-3.2ZM4043.9,1101.7v18.3h3.4c6.9,0,11.4-3.5,11.4-9.6s-3.6-8.7-11.4-8.7h-3.4Z"/>
    <path d="M4112.5,1141h-24.6l-3.3,9.2h-15.2l23.8-61.5h14.5l23.8,61.5h-15.8l-3.3-9.2h0ZM4108.4,1129.5l-8.1-22.5-8.2,22.5h16.3Z"/>
  </g>
  <g id="LabelNY">
    <path d="M4182.8,872.7v36.7h-14.7v-61.5h14.1l26.7,36.8v-36.8h14.7v61.5h-14l-26.8-36.7h0Z"/>
    <path d="M4263.7,889.8v19.5h-14.7v-19.4l-21.4-42.1h16l12.9,28.4,13.7-28.4h14.8l-21.4,42h.1Z"/>
  </g>
  <g id="LabelVT">
    <path d="M4371.3,700.7h-10.6l-15.4-41h10.6l10.4,29.2,10.4-29.2h10.1l-15.5,41h0Z"/>
    <path d="M4395.2,668.5h-7.8v-8.8h25.4v8.8h-7.8v32.2h-9.8v-32.2h0Z"/>
  </g>
  <g id="LabelNH">
    <path d="M4451.2,755.8v22.2h-8.9v-37.3h8.5l16.2,22.3v-22.3h8.9v37.3h-8.5l-16.2-22.2Z"/>
    <path d="M4480.7,740.8h8.9v13.4h12.4v-13.4h8.9v37.3h-8.9v-15.8h-12.4v15.8h-8.9v-37.3Z"/>
  </g>
  <g id="LabelME">
    <path d="M4541.4,537.4h-14.4v-61.2h15l18.6,26.5,17.6-26.5h14.8v61.2h-14.4v-37.1l-17.5,25.4h-1.4l-18.4-25.7v37.4h0Z"/>
    <path d="M4600.8,476.3h35.4v12.9h-20.8v11.2h18.7v11.7h-18.7v12.5h21.5v12.9h-36.1v-61.2h0Z"/>
  </g>
  <g id="LabelHI">
    <path d="M2042.8,2715.9h11.6v17.5h16.2v-17.5h11.6v48.7h-11.6v-20.7h-16.2v20.7h-11.6v-48.7h0Z"/>
    <path d="M2088.3,2715.9h11.6v48.7h-11.6v-48.7Z"/>
  </g>
  <g id="LabelAK">
    <path d="M824,2339.6h-24.4l-3.3,9.1h-15.2l23.7-61.2h14.4l23.7,61.2h-15.7l-3.3-9.1h0ZM819.9,2328.1l-8-22.4-8.1,22.4h16.2-.1Z"/>
    <path d="M861.5,2321v27.7h-14.6v-61.2h14.6v26.9l18.9-26.9h16.9l-21.6,29,23.8,32.1h-18.5l-19.4-27.7h-.1Z"/>
  </g>
  <line class="st1" x1="4544.8" y1="837.2" x2="4599.6" y2="837.2"/>
  <line class="st1" x1="4535.1" y1="943" x2="4594.3" y2="943"/>
  <line class="st1" x1="4412.8" y1="993.5" x2="4471.9" y2="993.5"/>
  <line class="st1" x1="4364.4" y1="1112.8" x2="4404" y2="1112.8"/>
  <line class="st1" x1="4320.2" y1="1276.6" x2="4359.8" y2="1276.6"/>
  <line class="st1" x1="4307.1" y1="1337.8" x2="4346.7" y2="1337.8"/>
  <g>
    <path d="M4622.4,859.2h-10.6v-44.8h11l13.6,19.4,12.9-19.4h10.9v44.8h-10.6v-27.2l-12.8,18.6h-1l-13.4-18.8v27.3h0Z"/>
    <path d="M4694.5,852.6h-17.9l-2.4,6.7h-11.1l17.3-44.8h10.6l17.3,44.8h-11.5l-2.4-6.7h.1ZM4691.5,844.2l-5.9-16.4-5.9,16.4h11.8Z"/>
  </g>
  <g id="LabelRI">
    <path d="M4618.9,949.5h-.7v14.9h-10.7v-44.8h12.8c8.8,0,17.6,3.2,17.6,15.2s-3.5,10.1-8.2,12.4l12.5,17.2h-12.8l-10.6-14.9h.1ZM4618.3,929.1v11.9h2.5c4.2,0,6.7-2.2,6.7-6.1s-2.8-5.9-6.7-5.9h-2.5Z"/>
    <path d="M4645.6,919.6h10.7v44.8h-10.7v-44.8Z"/>
  </g>
  <g id="LabelCT">
    <path d="M4519,987.3c-2.6-1.7-5.8-2.6-9.1-2.6-8.5,0-13.9,6.4-13.9,13.9s5.4,14.2,13.9,14.2,6.5-.8,9.1-2.6l4.7,7.9c-4.7,3.1-9.2,4.4-14.2,4.4-14.6,0-24.3-10.7-24.3-23.9s9.7-23.8,24.3-23.8,9.4,1.3,14.2,4.4l-4.7,7.9h0v.2h0Z"/>
    <path d="M4533.2,986h-7.7v-9.6h26v9.6h-7.6v35.2h-10.7v-35.2h0Z"/>
  </g>
  <g id="LabelNJ">
    <path d="M4427.5,1108.9v26.7h-10.7v-44.8h10.3l19.4,26.8v-26.8h10.7v44.8h-10.2l-19.5-26.7h0Z"/>
    <path d="M4460.5,1125.7c1.5.8,3.2,1.3,4.6,1.3,2.9,0,4.8-2.2,4.8-8.7v-27.4h10.7v31.3c0,9.1-3.7,14.6-13.9,14.6s-4.4-.2-6.2-1.1v-10h0Z"/>
  </g>
  <g id="LabelDE">
    <path d="M4370.2,1257.7h13.5c12.4,0,23.8,6.7,23.8,22.3s-11.2,22.4-23.6,22.4h-13.6v-44.8h0ZM4380.9,1292.8h3.4c6.7,0,12.5-4.2,12.5-12.8s-5.8-12.6-12.5-12.7h-3.4v25.4h0Z"/>
    <path d="M4411.9,1257.7h25.9v9.4h-15.2v8.2h13.7v8.6h-13.7v9.1h15.7v9.4h-26.4v-44.8h0Z"/>
  </g>
  <g id="LabelMD">
    <path d="M4369.5,1359.1h-10.2v-43.3h10.6l13.2,18.7,12.5-18.7h10.5v43.3h-10.2v-26.3l-12.4,18h-1l-13-18.2v26.5h0Z"/>
    <path d="M4411.4,1315.8h13c12,0,23,6.4,23,21.6s-10.8,21.7-22.9,21.7h-13.2v-43.3h.1ZM4421.8,1349.7h3.3c6.4,0,12.1-4.1,12.1-12.3s-5.6-12.2-12.1-12.2h-3.3v24.6h0Z"/>
  </g>
  <g id="Washington-DC-label">
    <path d="M4158.8,1329.8h13.4c12.1,0,23.2,6.5,23.2,21.8s-11,21.8-23.1,21.8h-13.4v-43.8h-.2v.2h.1ZM4169.2,1364.2h3.3c6.5,0,12.1-4.2,12.1-12.5s-5.7-12.4-12.1-12.4h-3.3v24.8h0v.2Z"/>
    <path d="M4231.2,1340.6c-2.4-1.7-5.7-2.4-9-2.4-8.4,0-13.7,6.2-13.7,13.7s5.3,14,13.7,14,6.2-.8,9-2.4l4.7,8c-4.7,3.1-9,4.4-14,4.4-14.3,0-23.9-10.4-23.9-23.3s9.6-23.3,23.9-23.3,9.2,1.2,14,4.4l-4.7,8h0v-.9Z"/>
  </g>
  <circle id="Washington-DC" class="st2" cx="4164.5" cy="1284.9" r="30.2"/>
</svg>
